<svg width="20" height="21" viewBox="0 0 20 21" xmlns="http://www.w3.org/2000/svg">
<path fill-rule="evenodd" clip-rule="evenodd" d="M5.20866 11.5833C8.59949 11.5833 8.75033 12.7333 8.75033 15.125C8.75033 16.3233 8.75033 17.1758 8.24699 17.8C7.66783 18.5191 6.61366 18.6666 5.20866 18.6666C3.80366 18.6666 2.74949 18.5191 2.17033 17.8C1.66699 17.1758 1.66699 16.3241 1.66699 15.1458L2.29199 15.125H1.66699C1.66699 12.7333 1.81783 11.5833 5.20866 11.5833ZM14.3753 11.5833C17.7662 11.5833 17.917 12.7333 17.917 15.125C17.917 16.3233 17.917 17.1758 17.4137 17.8C16.8345 18.5191 15.7803 18.6666 14.3753 18.6666C12.9703 18.6666 11.9162 18.5191 11.337 17.8C10.8337 17.1758 10.8337 16.3241 10.8337 15.1458L11.4587 15.125H10.8337C10.8337 12.7333 10.9845 11.5833 14.3753 11.5833ZM5.38046 12.8337L5.20866 12.8333C3.03451 12.8333 2.92302 12.9893 2.9173 14.8142L2.91765 15.5251C2.9216 16.2509 2.94925 16.7752 3.14283 17.0166C3.36366 17.29 4.01949 17.4166 5.20866 17.4166C6.39783 17.4166 7.05366 17.2891 7.27449 17.0158C7.50033 16.735 7.50033 16.0683 7.50033 15.145C7.50033 13.0615 7.50033 12.8435 5.38046 12.8337ZM14.5471 12.8337L14.3753 12.8333C12.2012 12.8333 12.0897 12.9893 12.084 14.8142L12.0843 15.5251C12.0883 16.2509 12.1159 16.7752 12.3095 17.0166C12.5303 17.29 13.1862 17.4166 14.3753 17.4166C15.5645 17.4166 16.2203 17.2891 16.4412 17.0158C16.667 16.735 16.667 16.0683 16.667 15.145C16.667 13.0615 16.667 12.8435 14.5471 12.8337ZM5.20866 2.41663C8.59949 2.41663 8.75033 3.56663 8.75033 5.95829C8.75033 7.15663 8.75033 8.00913 8.24699 8.63329C7.66783 9.35246 6.61366 9.49996 5.20866 9.49996C3.80366 9.49996 2.74949 9.35246 2.17033 8.63329C1.66699 8.00913 1.66699 7.15746 1.66699 5.97913L2.29199 5.95829H1.66699C1.66699 3.56663 1.81783 2.41663 5.20866 2.41663ZM14.3753 2.41663C17.7662 2.41663 17.917 3.56663 17.917 5.95829C17.917 7.15663 17.917 8.00913 17.4137 8.63329C16.8345 9.35246 15.7803 9.49996 14.3753 9.49996C12.9703 9.49996 11.9162 9.35246 11.337 8.63329C10.8337 8.00913 10.8337 7.15746 10.8337 5.97913L11.4587 5.95829H10.8337C10.8337 3.56663 10.9845 2.41663 14.3753 2.41663ZM5.38046 3.667L5.20866 3.66663C3.03451 3.66663 2.92302 3.82264 2.9173 5.6475L2.91765 6.35844C2.9216 7.08424 2.94925 7.60853 3.14283 7.84996C3.36366 8.12329 4.01949 8.24996 5.20866 8.24996C6.39783 8.24996 7.05366 8.12246 7.27449 7.84913C7.50033 7.56829 7.50033 6.90163 7.50033 5.97829C7.50033 3.89479 7.50033 3.67681 5.38046 3.667ZM14.5471 3.667L14.3753 3.66663C12.2012 3.66663 12.0897 3.82264 12.084 5.6475L12.0843 6.35844C12.0883 7.08424 12.1159 7.60853 12.3095 7.84996C12.5303 8.12329 13.1862 8.24996 14.3753 8.24996C15.5645 8.24996 16.2203 8.12246 16.4412 7.84913C16.667 7.56829 16.667 6.90163 16.667 5.97829C16.667 3.89479 16.667 3.67681 14.5471 3.667Z"/>
</svg>
