<svg width="86" height="85" viewBox="0 0 86 85" fill="none" xmlns="http://www.w3.org/2000/svg">
<g clip-path="url(#clip0_162_1550)">
<path d="M34.774 27.4199C32.5065 27.4199 30.6611 29.2652 30.6611 31.5328V32.9038H33.4031V31.5328C33.4031 30.7774 34.0186 30.1619 34.774 30.1619C35.5294 30.1619 36.145 30.7774 36.145 31.5328V32.9038H38.8869V31.5328C38.8869 29.2652 37.0416 27.4199 34.774 27.4199Z" fill="white"/>
<path d="M22.4358 32.9038V31.5328C22.4358 29.2652 20.5904 27.4199 18.3229 27.4199C16.0553 27.4199 14.21 29.2652 14.21 31.5328V32.9038H16.9519V31.5328C16.9519 30.7774 17.5675 30.1619 18.3229 30.1619C19.0783 30.1619 19.6938 30.7774 19.6938 31.5328V32.9038H22.4358Z" fill="white"/>
<path d="M43.8733 38.3871H44.371C47.3953 38.3871 49.8548 35.9276 49.8548 32.9032C49.8548 31.1073 48.9747 29.5238 47.6352 28.523L49.1529 23.2091C49.619 21.5818 49.8548 19.8982 49.8548 18.2065C49.8548 8.16823 41.6866 0 31.6484 0H11.6898C7.03129 0 3.24194 3.78936 3.24194 8.4479C3.24194 9.3596 3.38726 10.2576 3.67516 11.1199L4.35242 13.1531C1.9354 14.8585 0.5 17.6224 0.5 20.5933C0.5 22.6539 1.20879 24.6747 2.49613 26.2828L4.76919 29.1248C3.82871 30.1092 3.24194 31.4363 3.24194 32.9032C3.24194 35.9276 5.70145 38.3871 8.72581 38.3871H9.22347C10.6123 44.2315 14.8773 48.9573 20.4421 50.9973L20.0582 52.1502C16.7062 52.5012 13.7627 54.5974 12.3054 57.6355C10.2915 57.8987 8.72581 59.6083 8.72581 61.6936V67.1774C8.72581 68.9624 9.87605 70.4705 11.4677 71.0381V82.2581C11.4677 83.7702 12.6975 85 14.2097 85H38.8871C40.3993 85 41.629 83.7702 41.629 82.2581V71.0381C43.2207 70.4705 44.371 68.9624 44.371 67.1774V61.6936C44.371 59.6083 42.8053 57.8987 40.7914 57.6341C39.3327 54.5947 36.3906 52.4985 33.0372 52.1489L32.6533 50.9959C38.2194 48.9573 42.4845 44.2315 43.8733 38.3871ZM44.371 35.6452H44.301C44.3367 35.1914 44.371 34.7376 44.371 34.2742V30.1613C45.8831 30.1613 47.1129 31.391 47.1129 32.9032C47.1129 34.4154 45.8831 35.6452 44.371 35.6452ZM8.72581 35.6452C7.21363 35.6452 5.98387 34.4154 5.98387 32.9032C5.98387 31.391 7.21363 30.1613 8.72581 30.1613V34.2742C8.72581 34.7376 8.76008 35.1914 8.79572 35.6452H8.72581ZM8.72581 25.8482V27.4194C8.16645 27.4194 7.63726 27.5277 7.12863 27.684L4.63758 24.5691C3.73685 23.4449 3.24194 22.0328 3.24194 20.5933C3.24194 18.4587 4.30169 16.479 6.0771 15.2959L7.61532 14.269L6.27726 10.2521C6.08258 9.67081 5.98387 9.06347 5.98387 8.4479C5.98387 5.30153 8.54347 2.74194 11.6898 2.74194H31.6484C40.1744 2.74194 47.1129 9.6804 47.1129 18.2065C47.1129 19.6432 46.9127 21.0718 46.5179 22.4551L45.0798 27.4906C44.8453 27.4605 44.6136 27.4194 44.371 27.4194V26.0182C44.371 23.8219 43.0658 21.8436 41.0477 20.9785L37.4243 19.4252C37.9562 18.663 38.4333 17.8527 38.7898 16.9602L36.2439 15.9416C34.7865 19.5829 31.3125 21.9355 27.3915 21.9355H16.9516C15.4394 21.9355 14.2097 20.7057 14.2097 19.1935C14.2097 17.6814 15.4394 16.4516 16.9516 16.4516H17.1518C18.1964 16.4516 19.1369 17.0329 19.6044 17.9665L19.8389 18.4354L22.2915 17.2084L22.0571 16.7395C21.1221 14.8709 19.2411 13.7097 17.1518 13.7097H16.9516C13.9273 13.7097 11.4677 16.1692 11.4677 19.1935C11.4677 19.805 11.5911 20.3835 11.7776 20.9333L11.757 20.9429C9.88702 21.8779 8.72581 23.7589 8.72581 25.8482ZM32.7301 54.8936C32.8672 54.9073 33.007 54.9086 33.1414 54.9306L32.242 60.3226H20.8548L19.9568 54.9306C20.0911 54.9086 20.231 54.9073 20.3681 54.8936L22.26 57.7315C22.7686 58.4951 23.6214 58.9516 24.5399 58.9516H28.5569C29.4754 58.9516 30.3281 58.4951 30.8381 57.7301L32.7301 54.8936ZM23.8064 63.0645H29.2903V65.8064H23.8064V63.0645ZM17.3437 55.9355L18.021 60.0004C17.271 59.1257 16.3182 58.4416 15.2187 58.0317C15.774 57.1817 16.4978 56.4702 17.3437 55.9355ZM11.4677 61.6936C11.4677 60.9368 12.0833 60.3226 12.8387 60.3226C15.1063 60.3226 16.9516 62.1679 16.9516 64.4355C16.9516 66.7031 15.1063 68.5484 12.8387 68.5484C12.0833 68.5484 11.4677 67.9342 11.4677 67.1774V61.6936ZM14.2097 82.2581V71.1519C17.3341 70.5144 19.6935 67.7464 19.6935 64.4355C19.6935 63.9666 19.6456 63.5073 19.5551 63.0645H21.0645V65.8064C21.0645 67.3186 22.2943 68.5484 23.8064 68.5484H29.2903C30.8025 68.5484 32.0323 67.3186 32.0323 65.8064V63.0645H33.5417C33.4512 63.5073 33.4032 63.9666 33.4032 64.4355C33.4032 67.745 35.7627 70.5144 38.8871 71.1519V82.2581H14.2097ZM41.629 61.6936V67.1774C41.629 67.9342 41.0135 68.5484 40.2581 68.5484C37.9905 68.5484 36.1452 66.7031 36.1452 64.4355C36.1452 62.1679 37.9905 60.3226 40.2581 60.3226C41.0135 60.3226 41.629 60.9368 41.629 61.6936ZM37.8767 58.0317C36.7772 58.4416 35.8244 59.1257 35.0744 60.0004L35.7517 55.9355C36.5989 56.4702 37.3228 57.1817 37.8767 58.0317ZM30.5201 53.2648L28.5569 56.2097H24.5399L22.5767 53.2648L23.0812 51.7527C24.204 51.9748 25.3611 52.0968 26.5484 52.0968C27.7356 52.0968 28.8927 51.9748 30.0156 51.7527L30.5201 53.2648ZM26.5484 49.3548C18.2335 49.3548 11.4677 42.5891 11.4677 34.2742V25.8482C11.4677 24.8035 12.049 23.8631 12.9827 23.3956L13.287 23.2434C14.2604 24.1249 15.5381 24.6774 16.9516 24.6774H27.3915C30.4721 24.6774 33.3306 23.5381 35.5241 21.5941L39.9674 23.4984C40.9764 23.9316 41.629 24.9201 41.629 26.0182V34.2742C41.629 42.5891 34.8633 49.3548 26.5484 49.3548Z" fill="white"/>
<path d="M25.4129 41.1293H22.4365V43.8713H25.4129C28.2796 43.8713 30.9749 42.7553 33.0026 40.7276L31.064 38.7891C29.5546 40.2985 27.5489 41.1293 25.4129 41.1293Z" fill="white"/>
<path d="M82.7574 63.0666H77.2735V46.615C77.2735 45.1028 76.0438 43.873 74.5316 43.873H58.08C56.5678 43.873 55.3381 45.1028 55.3381 46.615V63.0666H49.8542C48.3421 63.0666 47.1123 64.2963 47.1123 65.8085V82.2601C47.1123 83.7723 48.3421 85.002 49.8542 85.002H82.7574C84.2695 85.002 85.4993 83.7723 85.4993 82.2601V65.8085C85.4993 64.2963 84.2695 63.0666 82.7574 63.0666ZM73.1606 65.8085H77.2735V68.5504H73.1606V65.8085ZM63.5639 46.615H69.0477V49.3569H63.5639V46.615ZM58.08 46.615H60.8219V49.3569C60.8219 50.8691 62.0517 52.0988 63.5639 52.0988H69.0477C70.5599 52.0988 71.7897 50.8691 71.7897 49.3569V46.615H74.5316V63.0666H58.08V46.615ZM55.3381 65.8085H59.451V68.5504H55.3381V65.8085ZM49.8542 65.8085H52.5962V68.5504C52.5962 70.0626 53.8259 71.2924 55.3381 71.2924H59.451C60.9632 71.2924 62.1929 70.0626 62.1929 68.5504V65.8085H64.9348V82.2601H49.8542V65.8085ZM67.6768 82.2601V65.8085H70.4187V68.5504C70.4187 70.0626 71.6484 71.2924 73.1606 71.2924H77.2735C78.7857 71.2924 80.0154 70.0626 80.0154 68.5504V65.8085H82.7574L82.7587 82.2601H67.6768Z" fill="white"/>
<path d="M59.4512 76.7754H62.1932V79.5174H59.4512V76.7754Z" fill="white"/>
<path d="M53.9678 76.7754H56.7098V79.5174H53.9678V76.7754Z" fill="white"/>
<path d="M77.2734 76.7754H80.0154V79.5174H77.2734V76.7754Z" fill="white"/>
<path d="M71.79 76.7754H74.532V79.5174H71.79V76.7754Z" fill="white"/>
<path d="M69.0488 57.5801H71.7908V60.3221H69.0488V57.5801Z" fill="white"/>
<path d="M63.5635 57.5801H66.3055V60.3221H63.5635V57.5801Z" fill="white"/>
</g>
<defs>
<clipPath id="clip0_162_1550">
<rect width="85" height="85" fill="white" transform="translate(0.5)"/>
</clipPath>
</defs>
</svg>
