<svg width="197" height="53" viewBox="0 0 197 53" fill="none" xmlns="http://www.w3.org/2000/svg">
<g clip-path="url(#clip0_2761_3148)">
<path opacity="0.4" d="M47.6856 24.1637C47.6856 24.0472 47.6856 23.989 47.6856 23.8725C47.6276 23.9307 47.5697 23.9307 47.5118 23.989C46.9903 24.2802 46.5268 24.5132 46.1791 24.6879C45.8315 24.8626 45.2521 24.9791 44.7306 25.1538C44.2091 25.3285 44.0353 25.0373 43.8615 24.9791C43.6876 24.9791 43.6297 25.0956 43.3979 24.9791C43.2241 24.8626 42.5288 24.9209 42.2391 24.6879C42.4709 25.445 43.8035 26.4934 44.7885 26.6681C45.8315 26.8428 46.4109 26.6681 46.4109 26.6681C46.4109 26.6681 46.8744 27.134 47.3959 27.0758C46.0632 28.2406 45.4259 28.6483 44.2091 28.7648C44.6147 28.1241 44.7885 27.8329 44.7306 27.7747C44.6726 27.6582 42.7606 28.6483 41.9494 28.6483C41.1382 28.6483 40.2112 28.5901 39.2262 28.2406C38.2412 27.8329 36.6188 27.5417 36.2132 26.9011C38.1253 27.5417 39.1682 27.0758 39.9794 27.0758C40.7326 27.0758 41.7176 26.4934 41.7176 26.4934C41.7176 26.4934 40.7906 26.3769 40.0374 26.3769C39.5159 25.445 38.3571 25.2703 37.1403 24.6296C39.5738 25.678 40.7906 24.9208 40.7906 24.9208C40.7906 24.9208 39.6897 24.3384 39.4579 23.5813C40.6747 23.6395 42.2971 22.1252 42.2971 22.1252C42.2971 22.1252 38.0674 21.4846 35.8076 19.4461C37.6618 19.5044 39.9215 18.8055 39.9215 17.6406C39.9215 16.4176 39.8635 17.4659 37.9515 17.2329C36.0974 17 35.4021 16.5923 35.4021 16.5923C35.4021 16.5923 37.1403 16.534 36.5029 15.5439C38.5888 16.0681 39.8056 15.7769 40.9065 14.7285C38.5309 14.9615 37.2562 14.3208 37.2562 14.3208C37.2562 14.3208 38.6468 14.3208 39.2262 13.5055C38.2991 13.3307 37.6618 13.2725 36.3291 13.156C34.9965 13.0395 34.8806 12.6901 34.8806 12.6901C34.8806 12.6901 36.3291 12.2241 36.2132 11.6417C36.1553 11.0593 35.2282 11.5835 33.8376 10.1274C35.0544 10.8263 35.6338 10.4187 35.6338 10.4187C35.6338 10.4187 34.8806 9.66151 34.475 9.13733C34.0694 8.61316 33.6638 8.20547 33.5479 7.56481C33.4321 6.92415 33.7218 6.63294 33.4321 6.28349C33.1424 5.93404 33.4321 5.11865 33.0265 5.11865C32.6209 5.11865 32.9106 5.4681 32.6209 6.10876C32.3891 6.74942 32.1574 7.04063 32.1574 7.68129C32.1574 8.32195 30.535 10.3022 30.0135 11.8165C30.9406 11.5252 31.4621 10.7681 31.4621 10.7681C31.4621 10.7681 30.9406 12.0494 30.7088 12.5154C30.4771 12.9813 30.1294 13.156 29.8976 13.5637C29.6659 13.9714 29.4921 13.9714 29.0865 14.1461C28.6809 14.3208 28.6229 14.4956 28.6229 14.6703C28.6229 14.845 28.7388 15.1362 29.2603 15.1945C28.4491 15.4274 27.1165 16.0099 26.7109 16.2428C26.2474 16.4758 26.595 16.8252 26.9426 16.9417C27.3482 17.0582 27.9276 17.2329 28.6809 17.0582C29.4341 16.8835 29.7818 16.6505 29.7818 16.6505C29.7818 16.6505 29.55 16.9417 29.3762 17.3494C29.2603 17.7571 25.61 19.5044 24.1035 19.6791C25.3203 20.2033 29.2024 19.5044 30.1874 18.8055C28.7968 21.1934 27.4062 21.4263 26.3632 21.834C25.2624 22.2417 24.5671 22.0088 24.2774 22.3582C24.0456 22.6494 23.9876 24.1055 27.3482 24.1637C26.8268 24.9208 25.7838 24.6879 25.5521 25.1538C25.2624 25.5615 25.4941 26.2604 26.4212 26.3769C27.3482 26.4934 26.9426 26.9593 26.9426 26.9593C26.6529 27.4252 26.3053 28.0077 26.0735 28.1241C25.8418 28.2406 25.2044 27.7747 24.8568 27.7165C24.5091 27.6 23.6979 27.5417 23.2924 26.9011C24.1615 26.9011 24.9147 26.4351 24.7988 26.0857C24.6829 25.7362 23.6979 25.7362 23.1765 25.2703C22.655 24.8044 22.1335 24.5132 21.8438 23.8725C22.5391 24.1055 23.2924 23.4648 23.0606 23.1154C22.8288 22.7659 22.1335 22.9989 21.2644 22.1252C22.3653 22.3582 23.0026 21.6593 22.8868 21.3681C22.7709 21.0769 21.3224 21.2516 20.5691 19.9121C21.0906 20.0868 21.9597 19.9703 21.9597 19.7956C21.9597 19.6208 21.2644 19.5044 20.8009 18.6307C20.3374 17.7571 20.5691 17.2329 20.2215 16.8252C20.1056 16.5923 20.1056 13.7384 19.9897 13.7384C19.8738 13.7384 19.5841 15.1362 19.6421 15.5439C19.6421 15.9516 19.7579 16.3593 19.5841 16.7088C19.4103 17.0582 19.4103 17.3494 19.4103 17.6406C19.4103 17.9318 19.1206 18.1066 19.0626 18.2813C19.0047 18.5143 18.3674 18.6307 18.3674 18.8055C18.3674 18.9802 18.8309 19.0384 18.9468 19.1549C19.0626 19.2132 18.0776 19.8538 17.4403 19.9121C16.8029 19.9703 16.9768 20.145 16.8029 20.145C16.6291 20.145 16.5712 20.0285 16.5132 20.0868C16.4553 20.145 16.4553 20.5527 16.8609 20.4945C17.2665 20.4945 17.2665 20.7857 17.5562 20.8439C17.8459 20.9022 18.1935 20.8439 18.1935 20.8439C18.1935 20.8439 17.9618 21.2516 17.6721 21.3099C17.4403 21.3681 17.0347 21.3099 16.9768 21.5428C16.9188 21.7176 17.2085 22.0088 17.6141 22.067C18.0197 22.067 18.3094 21.9505 18.3094 21.9505C18.3094 21.9505 17.6141 22.5912 17.0926 22.5912C16.5712 22.6494 15.8179 22.5912 15.7021 22.7659C15.5862 22.9406 15.6441 23.1736 16.2815 23.3483C16.9188 23.523 16.9188 23.756 16.9188 23.756C16.9188 23.756 16.2815 23.8143 16.2235 23.9307C16.1656 24.0472 16.3394 24.3384 16.8609 24.3384C17.4403 24.3384 17.6721 24.1637 17.6721 24.1637C17.6721 24.1637 16.9768 24.6296 16.5712 24.9208C16.1656 25.2121 15.2965 25.1538 15.0647 25.3868C14.8329 25.6197 14.3694 25.5033 14.1376 25.5615C13.9059 25.5615 13.6162 25.8527 14.0218 26.2022C14.4853 26.5516 15.5282 26.5516 15.5282 26.5516C15.5282 26.5516 14.9488 27.1923 15.6441 27.4252C15.5282 27.9494 14.0797 28.5318 13.9059 28.5901C13.7321 28.6483 13.3265 28.5901 13.0947 28.7066C12.8629 28.823 12.805 29.289 13.4424 29.4637C14.0797 29.6384 14.4853 30.2208 15.3544 30.1626C14.9488 30.5121 13.5582 31.0945 13.5582 31.0945C13.5582 31.0945 12.1676 30.2791 11.5303 29.289C10.8929 28.3571 10.2556 27.4252 9.85 27.0758C11.3565 27.4835 12.4574 27.4835 13.1526 27.367C13.8479 27.2505 14.3115 27.134 14.3115 26.9593C14.3115 26.8428 12.805 26.6099 12.5732 26.4934C13.1526 26.2022 13.0368 25.7945 13.0368 25.7945C13.0368 25.7945 11.9359 26.0857 10.835 25.0373C9.67618 23.989 8.34353 22.3582 7.88 20.9604C9.32853 22.5912 10.9509 23.4066 11.6462 23.6978C12.3415 23.989 13.9059 24.2219 14.8909 23.756C13.0947 23.1736 11.9938 22.1835 11.9938 22.1835C11.9938 22.1835 13.6741 21.4846 13.3844 20.2615C12.2256 20.2615 10.835 19.7956 10.0238 19.0967C9.21265 18.3978 9.09676 18.456 9.09676 18.456C9.09676 18.456 10.5453 17.5241 10.1397 16.5923C10.0238 16.4176 9.15471 16.5923 8.51735 16.1846C7.88 15.7769 7.76412 15.7769 7.47441 15.4274C8.05382 15.5439 9.09676 15.2527 8.92294 14.7285C8.80706 14.1461 7.99588 14.0879 7.59029 13.5055C7.76412 13.2725 7.76412 13.0978 7.64824 12.9813C7.99588 12.8648 8.11176 12.2824 8.05382 11.9912C7.99588 11.6417 7.59029 10.8846 7.18471 10.4187C6.895 10.0692 6.72118 8.61316 6.60529 7.73953C6.48941 7.85601 6.37353 7.9725 6.31559 8.08898C6.31559 8.14722 6.25765 8.20547 6.25765 8.20547C6.08382 8.55492 5.96794 9.07909 5.96794 9.48678C5.91 9.95272 5.79412 10.4769 5.56235 10.7099C5.33059 11.0011 5.04088 11.234 4.98294 11.467C4.925 11.7 4.34559 11.7582 4.34559 11.9912C4.34559 12.2241 4.46147 12.5736 4.63529 12.6901C4.75118 12.8066 5.09882 12.8066 5.09882 12.8066C5.09882 12.8066 4.69324 13.389 4.05588 13.6802C3.41853 13.9714 3.12882 14.2626 3.07088 14.4956C3.07088 14.6703 3.24471 14.9615 3.65029 15.0198C4.05588 15.078 4.05588 15.311 4.34559 15.3692C4.63529 15.3692 4.63529 15.078 4.86706 15.078C5.09882 15.078 5.21471 15.078 5.27265 15.1945C5.27265 15.2527 4.63529 15.5439 4.51941 15.8351C4.46147 16.1263 3.88206 16.2428 3.59235 16.3011C3.24471 16.4176 2.78118 16.3011 2.66529 16.4758C2.54941 16.6505 1.85412 17.0582 1.79618 17.2912C1.79618 17.5241 2.49147 17.5241 2.66529 17.6989C2.83912 17.8736 3.88206 18.1648 4.11382 18.1648C4.28765 18.1648 4.28765 18.223 4.28765 18.2813C4.28765 18.3395 3.70824 18.1648 3.47647 18.5143C3.18676 18.8637 3.24471 19.0967 2.66529 19.0384C2.14382 18.9219 2.02794 19.5044 1.15882 19.6209C0.985 19.6209 0.753235 19.6209 0.463529 19.6209C0.231765 20.6692 0.115882 21.7758 0.0579412 22.9406C0.347647 22.9406 0.579412 22.9406 0.753235 22.8824C1.27471 22.7077 2.20176 22.7077 2.20176 22.7077C2.20176 22.7077 2.31765 22.8824 2.60735 22.8241C2.49147 23.0571 1.62235 23.4648 1.15882 23.9307C0.985 24.1055 0.579412 24.3384 0 24.6296C0 25.3868 0.0579412 26.0857 0.115882 26.8428C0.521471 26.8428 0.869118 26.7846 0.869118 26.7846C0.869118 26.7846 0.869118 27.2505 0.173824 27.5417C0.173824 27.6582 0.173824 27.7165 0.231765 27.8329C1.10088 28.1241 2.49147 27.9494 2.49147 27.9494C2.49147 27.9494 1.97 27.9494 1.21676 28.823C1.04294 28.9978 0.869118 29.1725 0.637353 29.289C1.04294 31.0362 1.62235 32.7835 2.37559 34.356C2.54941 34.2395 2.78118 34.0648 2.955 33.8901C2.83912 34.0648 2.66529 34.2978 2.43353 34.589C6.31559 42.6263 14.4274 48.1011 23.8718 48.1011C37.0244 48.1011 47.6856 37.3846 47.6856 24.1637ZM40.7906 30.8615L41.5438 31.6769L40.4429 32.1428L40.2112 31.5022L40.7906 30.8615ZM10.7771 35.4626C10.3715 35.0549 10.2556 34.5307 10.2556 34.5307L11.6462 35.2296C11.6462 35.2296 11.1826 35.3461 10.7771 35.4626ZM12.6891 33.7154L13.79 33.7736L13.3265 34.2978L12.6891 33.7154ZM15.0647 39.1318C15.0647 39.1318 14.1956 38.7824 13.6162 37.967C14.7171 38.3747 16.2815 38.1417 16.2815 38.1417L15.0647 39.1318Z" fill="white"/>
<path d="M44.7301 20.0869C44.6143 20.0869 44.5563 20.0869 44.4404 20.0869C44.4404 20.0287 44.4404 20.0287 44.4404 19.9705C44.5563 20.0287 44.6722 20.0869 44.7301 20.0869C44.7301 20.0869 44.7301 20.1452 44.7301 20.0869Z" fill="#FEFEFE"/>
<g opacity="0.3">
<g opacity="0.3">
<path opacity="0.3" d="M46.816 22.7077C46.4105 22.533 46.5263 22.7659 46.2366 22.7077C45.9469 22.6494 45.4255 22.533 45.4255 22.533C45.4255 22.533 46.1207 23.3483 46.7581 23.5231C46.3525 23.756 45.3096 23.8143 45.3096 23.8143C45.3096 23.8143 46.0628 24.0472 46.2946 24.222C46.4105 24.3385 47.1637 24.2802 47.7431 24.2802C47.7431 23.756 47.6852 23.2901 47.6272 22.7659C47.2216 22.7659 46.9899 22.7659 46.816 22.7077Z" fill="#5392F5"/>
</g>
</g>
<path d="M24.4509 2.14843C24.4509 2.14843 24.0453 2.20667 23.9295 2.32316C22.423 3.25503 21.1483 4.41986 20.2212 5.8759C17.8456 9.60338 15.47 13.3891 13.3842 17.233C12.3992 19.0385 11.8777 21.0188 12.0515 23.1155C12.2253 24.6298 12.8048 25.9693 13.8477 27.1341C14.0795 27.3671 14.3692 27.4836 13.9636 27.9495C13.5 28.3572 13.5 29.1144 13.3842 29.755C13.2683 30.5704 13.3262 31.444 13.4421 32.2594C13.6739 33.7737 13.7898 35.288 13.6159 36.8605L13.3842 37.9671C12.3412 40.9957 11.7618 44.0825 12.1095 47.344C12.1674 47.8682 12.2833 48.3924 12.515 48.8583C12.9206 49.7319 12.8048 50.5473 12.3412 51.3045C11.4721 52.7605 11.8777 52.8188 13.3842 52.9352C14.2533 52.9935 15.1803 53.0517 16.1074 52.9352C16.9765 52.8188 17.1503 52.5275 16.9765 51.7704C16.8027 51.0133 16.9765 50.2561 17.3242 49.5572C18.425 47.1693 20.3371 45.3056 22.365 43.5583C22.6548 43.3254 22.7127 43.5583 22.8865 43.6748C24.335 44.9561 25.8995 46.1792 27.6956 47.0528C27.9853 47.1693 27.8695 47.4023 27.8695 47.577C27.9274 49.0913 28.1012 50.6056 28.7386 52.0034C28.9703 52.5858 29.5498 52.9352 30.245 52.9935C32.215 53.0517 34.1271 52.9935 36.0971 52.9352C36.155 52.9352 36.213 52.877 36.2709 52.877C36.0392 52.4693 35.6915 52.3528 35.3439 52.1781C34.9383 52.0034 34.4748 51.8869 34.0112 51.7122C33.0842 51.3045 32.7365 50.7221 33.0262 49.7902C33.4898 48.0429 33.7215 46.2374 33.6636 44.4319C33.6636 43.7913 33.5477 43.1506 33.3739 42.5682L32.5627 39.7726C32.273 38.666 32.0412 37.5594 31.9833 36.3946L31.8095 33.7155C31.7515 32.8418 31.6936 31.7352 31.5198 30.9781C31.5198 30.9781 31.5777 30.9199 31.6936 30.8616C31.8674 30.7451 32.0992 30.6869 32.3889 30.6287C35.0542 29.8133 36.3289 28.1243 35.9812 25.8528C35.8074 24.7462 35.228 23.7561 34.5327 22.8825C33.7215 21.9506 33.2 20.9023 33.0262 19.6792C32.8524 18.6891 32.6786 17.699 32.4468 16.7671C32.1571 15.4276 31.6356 14.2045 30.7086 13.1561C30.3609 12.7484 30.0712 12.2825 30.245 11.7001C30.303 11.4089 30.1871 11.3506 29.9553 11.3506C29.6656 11.2924 29.3759 11.1759 29.2021 11.0594C30.7086 11.2924 32.3309 11.5254 33.9533 11.4671C34.243 11.4671 34.6486 11.5254 34.8224 11.1759C34.9962 10.8265 34.7065 10.6517 34.4748 10.3023C35.9233 10.477 35.8074 9.25393 36.2709 8.61327C36.4448 8.32206 36.0971 8.08909 35.8653 7.91437C35.4018 7.56492 34.8803 7.27371 34.4168 6.92426C33.8374 6.51656 33.6056 5.93415 33.7795 5.23524C33.9533 4.53634 33.5477 3.95393 33.1421 3.42975C32.7945 3.02206 32.6206 2.67261 32.9103 2.14843C33.0842 1.79898 33.0262 1.44953 33.0262 1.10008C32.9103 0.0517289 32.0992 -0.297722 31.23 0.342938C30.303 1.04184 29.26 1.15832 28.1592 1.04184C27.8115 0.983597 27.4639 0.867114 27.2321 0.575905C26.8265 0.168212 26.363 -0.122996 25.7836 0.051729C25.1462 0.226454 24.8565 0.692388 24.6827 1.27481C24.393 1.50777 24.6248 1.74074 24.4509 2.14843Z" fill="white"/>
<path d="M28.7965 30.5703C28.2171 30.5703 27.8115 30.4539 27.5218 30.2209C27.4059 30.1044 27.1162 30.5703 26.305 30.2791C26.305 30.2791 27.1741 30.1627 27.1162 29.8132C27.0582 29.5802 27.0582 29.5802 26.9423 29.3473C26.8265 29.1725 26.1891 29.5802 25.7256 29.4055C25.7256 29.4055 26.6526 29.1725 26.7685 28.9396C26.8844 28.7648 26.7106 28.5901 26.6526 28.3572C26.5368 28.1824 26.1312 28.4736 25.5518 28.1824C25.5518 28.1824 26.8265 28.0077 27.0003 27.6C27.5218 26.6099 28.7965 25.4451 28.7965 25.4451C28.7965 25.4451 27.29 27.3088 27.4059 28.3572C27.5218 29.4637 28.7965 30.5703 28.7965 30.5703Z" fill="#AEAEAE"/>
<path d="M24.1609 19.854C24.3348 19.854 24.9142 20.1452 25.3777 20.2035C25.7833 20.2035 26.2468 20.3782 26.4786 20.5529C26.4786 20.5529 25.6674 20.3199 25.6095 20.4947C25.5515 20.6111 25.7254 20.8441 25.7833 21.1353C25.7833 21.1936 26.7683 21.4848 26.7683 21.6013C26.7683 21.6013 25.7833 21.4848 25.8412 21.6595C25.8992 21.8342 25.9571 22.0672 26.0151 22.2419C26.0151 22.3002 26.8262 22.4749 26.8262 22.5331C26.8262 22.5331 26.073 22.5331 26.073 22.7079C25.9571 24.4551 17.0342 26.9013 17.0342 26.9013C17.0342 26.9013 25.2618 24.3386 25.5515 22.009C25.7254 20.9606 24.1609 19.854 24.1609 19.854Z" fill="#AEAEAE"/>
<path d="M63.6189 35.9934C61.5562 35.9934 59.9339 35.5857 58.7519 34.7703C57.593 33.955 56.7819 32.8484 56.3183 31.4506C55.8548 30.0295 55.623 28.3987 55.623 26.5582V16.4591C55.623 14.5255 55.8548 12.8481 56.3183 11.427C56.7819 10.0059 57.593 8.91099 58.7519 8.1422C59.9339 7.37341 61.5562 6.98901 63.6189 6.98901C65.5658 6.98901 67.0838 7.32682 68.1731 8.00242C69.2856 8.65473 70.0736 9.59825 70.5371 10.833C71.0006 12.0677 71.2324 13.5004 71.2324 15.1312V17.5075H66.2958V15.0613C66.2958 14.2692 66.2495 13.547 66.1568 12.8947C66.0872 12.2424 65.867 11.7299 65.4962 11.3571C65.1486 10.9611 64.5344 10.7631 63.6537 10.7631C62.773 10.7631 62.124 10.9728 61.7069 11.3921C61.3129 11.7881 61.0579 12.3356 60.942 13.0345C60.8262 13.7101 60.7682 14.4789 60.7682 15.3409V27.6415C60.7682 28.6666 60.8493 29.5169 61.0116 30.1925C61.1738 30.8448 61.4635 31.3457 61.8807 31.6952C62.321 32.0213 62.912 32.1844 63.6537 32.1844C64.5112 32.1844 65.1138 31.9864 65.4615 31.5903C65.8323 31.171 66.064 30.6235 66.1568 29.9479C66.2495 29.2723 66.2958 28.5152 66.2958 27.6765V25.1255H71.2324V27.3969C71.2324 29.0743 71.0122 30.5653 70.5719 31.8699C70.1315 33.1512 69.3551 34.1646 68.2426 34.9101C67.1533 35.6323 65.6121 35.9934 63.6189 35.9934Z" fill="white"/>
<path d="M74.8841 35.609V7.30352H79.0906V25.1604L86.8084 7.30352H90.2501V35.609H86.0088V17.4725L78.2562 35.609H74.8841Z" fill="white"/>
<path d="M94.6429 35.609V7.30352H107.714V11.1475H99.7533V19.1848H100.866C102.766 19.1848 104.354 19.4528 105.629 19.9886C106.926 20.5011 107.9 21.3631 108.549 22.5745C109.198 23.7626 109.522 25.3701 109.522 27.3969C109.522 28.9811 109.325 30.309 108.931 31.3807C108.537 32.429 107.946 33.2677 107.158 33.8967C106.393 34.5257 105.466 34.9684 104.377 35.2246C103.288 35.4809 102.048 35.609 100.657 35.609H94.6429ZM99.7533 32.1145H100.692C101.665 32.1145 102.453 31.9747 103.056 31.6952C103.659 31.4156 104.099 30.9264 104.377 30.2275C104.655 29.5053 104.783 28.5268 104.759 27.2921C104.736 25.8244 104.435 24.7062 103.856 23.9374C103.299 23.1686 102.222 22.7842 100.622 22.7842H99.7533V32.1145Z" fill="white"/>
<path d="M112.908 35.609V7.30352H117.114V25.1604L124.832 7.30352H128.274V35.609H124.033V17.4725L116.28 35.609H112.908Z" fill="white"/>
<path d="M132.597 35.609V7.30352H140.871C142.563 7.30352 143.931 7.61802 144.974 8.24704C146.04 8.87605 146.816 9.79627 147.303 11.0077C147.813 12.1958 148.068 13.6402 148.068 15.3409C148.068 17.1813 147.755 18.6723 147.129 19.8139C146.503 20.9321 145.622 21.7475 144.487 22.26C143.374 22.7725 142.053 23.0288 140.524 23.0288H137.742V35.609H132.597ZM137.742 19.3945H139.689C140.616 19.3945 141.335 19.2664 141.845 19.0101C142.378 18.7306 142.737 18.2996 142.922 17.7171C143.131 17.1114 143.235 16.3077 143.235 15.3059C143.235 14.2809 143.154 13.4539 142.992 12.8248C142.853 12.1725 142.528 11.6949 142.019 11.3921C141.532 11.0892 140.755 10.9378 139.689 10.9378H137.742V19.3945Z" fill="white"/>
<path d="M149.192 35.609L154.824 22.9589C153.665 22.3532 152.726 21.4213 152.008 20.1633C151.289 18.882 150.93 17.3095 150.93 15.4457C150.93 13.582 151.266 12.056 151.938 10.8679C152.611 9.65649 153.619 8.75956 154.963 8.17715C156.33 7.59473 158.057 7.30352 160.143 7.30352H166.644V35.609H161.533V24.147H159.9C159.853 24.147 159.749 24.147 159.587 24.147C159.424 24.147 159.32 24.147 159.274 24.147L154.789 35.609H149.192ZM160.386 20.5128H161.533V10.9029H160.282C158.775 10.9029 157.64 11.2756 156.875 12.0211C156.11 12.7433 155.728 13.8848 155.728 15.4457C155.728 17.0532 156.064 18.2996 156.736 19.1848C157.431 20.0701 158.648 20.5128 160.386 20.5128Z" fill="white"/>
<path d="M171.03 35.609V7.30352H176.141V19.1848H177.184L181.738 7.30352H186.848L181.494 20.6525L187.265 35.609H182.051L177.184 22.5745H176.141V35.609H171.03Z" fill="white"/>
<path d="M56.3815 44.2696V41.0791H55.6931V40.5666H57.7581V41.0791H57.0634V44.2696H56.3815Z" fill="white"/>
<path d="M59.1466 44.3208C58.8746 44.3208 58.6601 44.2653 58.5029 44.1542C58.3456 44.0432 58.233 43.8852 58.1651 43.6802C58.1013 43.4751 58.0695 43.2338 58.0695 42.9562V41.8799C58.0695 41.6023 58.1013 41.361 58.1651 41.156C58.233 40.9509 58.3456 40.7929 58.5029 40.6819C58.6601 40.5708 58.8746 40.5153 59.1466 40.5153C59.4185 40.5153 59.631 40.5708 59.7839 40.6819C59.9411 40.7929 60.0516 40.9509 60.1154 41.156C60.1833 41.361 60.2173 41.6023 60.2173 41.8799V42.9562C60.2173 43.2338 60.1833 43.4751 60.1154 43.6802C60.0516 43.8852 59.9411 44.0432 59.7839 44.1542C59.631 44.2653 59.4185 44.3208 59.1466 44.3208ZM59.1466 43.8147C59.2783 43.8147 59.3697 43.7763 59.4206 43.6994C59.4759 43.6225 59.5077 43.5221 59.5162 43.3983C59.529 43.2701 59.5354 43.1377 59.5354 43.0011V41.8415C59.5354 41.7005 59.529 41.5681 59.5162 41.4443C59.5077 41.3204 59.4759 41.22 59.4206 41.1431C59.3697 41.062 59.2783 41.0214 59.1466 41.0214C59.0149 41.0214 58.9214 41.062 58.8661 41.1431C58.8109 41.22 58.7769 41.3204 58.7642 41.4443C58.7557 41.5681 58.7514 41.7005 58.7514 41.8415V43.0011C58.7514 43.1377 58.7557 43.2701 58.7642 43.3983C58.7769 43.5221 58.8109 43.6225 58.8661 43.6994C58.9214 43.7763 59.0149 43.8147 59.1466 43.8147Z" fill="white"/>
<path d="M60.8407 45.4868V40.5666H61.5227V40.8613C61.6034 40.7673 61.7011 40.6861 61.8158 40.6178C61.9306 40.5495 62.0665 40.5153 62.2238 40.5153C62.415 40.5153 62.5658 40.5666 62.6763 40.6691C62.791 40.7673 62.876 40.8933 62.9312 41.047C62.9864 41.1965 63.0226 41.3503 63.0396 41.5083C63.0566 41.6621 63.0651 41.7945 63.0651 41.9055V42.8025C63.0651 43.063 63.0396 43.3107 62.9886 43.5456C62.9376 43.7763 62.8441 43.9642 62.7081 44.1094C62.5764 44.2503 62.3895 44.3208 62.1473 44.3208C62.0155 44.3208 61.8987 44.2888 61.7967 44.2247C61.6947 44.1564 61.6034 44.0795 61.5227 43.9941V45.4868H60.8407ZM62.0134 43.7827C62.1324 43.7827 62.2174 43.74 62.2684 43.6545C62.3194 43.5648 62.3512 43.4452 62.364 43.2958C62.3767 43.1463 62.3831 42.9818 62.3831 42.8025V41.9055C62.3831 41.7518 62.3746 41.6108 62.3576 41.4827C62.3406 41.3503 62.3045 41.2457 62.2492 41.1688C62.194 41.0919 62.1069 41.0535 61.9879 41.0535C61.8987 41.0535 61.8137 41.0727 61.733 41.1111C61.6523 41.1496 61.5821 41.1944 61.5227 41.2457V43.6161C61.5864 43.6631 61.6586 43.7036 61.7394 43.7378C61.8201 43.7677 61.9114 43.7827 62.0134 43.7827Z" fill="white"/>
<path d="M63.6851 44.2696V40.5666H65.1702V41.0599H64.3671V44.2696H63.6851Z" fill="white"/>
<path d="M66.5346 44.3208C66.2627 44.3208 66.0481 44.2653 65.8909 44.1542C65.7337 44.0432 65.6211 43.8852 65.5531 43.6802C65.4894 43.4751 65.4575 43.2338 65.4575 42.9562V41.8799C65.4575 41.6023 65.4894 41.361 65.5531 41.156C65.6211 40.9509 65.7337 40.7929 65.8909 40.6819C66.0481 40.5708 66.2627 40.5153 66.5346 40.5153C66.8066 40.5153 67.019 40.5708 67.172 40.6819C67.3292 40.7929 67.4397 40.9509 67.5034 41.156C67.5714 41.361 67.6054 41.6023 67.6054 41.8799V42.9562C67.6054 43.2338 67.5714 43.4751 67.5034 43.6802C67.4397 43.8852 67.3292 44.0432 67.172 44.1542C67.019 44.2653 66.8066 44.3208 66.5346 44.3208ZM66.5346 43.8147C66.6664 43.8147 66.7577 43.7763 66.8087 43.6994C66.8639 43.6225 66.8958 43.5221 66.9043 43.3983C66.9171 43.2701 66.9234 43.1377 66.9234 43.0011V41.8415C66.9234 41.7005 66.9171 41.5681 66.9043 41.4443C66.8958 41.3204 66.8639 41.22 66.8087 41.1431C66.7577 41.062 66.6664 41.0214 66.5346 41.0214C66.4029 41.0214 66.3094 41.062 66.2542 41.1431C66.199 41.22 66.165 41.3204 66.1522 41.4443C66.1437 41.5681 66.1395 41.7005 66.1395 41.8415V43.0011C66.1395 43.1377 66.1437 43.2701 66.1522 43.3983C66.165 43.5221 66.199 43.6225 66.2542 43.6994C66.3094 43.7763 66.4029 43.8147 66.5346 43.8147Z" fill="white"/>
<path d="M68.2288 44.2696V40.5666H69.2613C69.512 40.5666 69.7074 40.6093 69.8476 40.6947C69.9921 40.7758 70.0941 40.8847 70.1536 41.0214C70.2173 41.1538 70.2513 41.2969 70.2555 41.4507C70.2598 41.6343 70.23 41.7988 70.1663 41.944C70.1026 42.0892 69.9709 42.1917 69.7712 42.2515C69.9241 42.2814 70.041 42.3455 70.1217 42.4437C70.2067 42.5376 70.264 42.6508 70.2938 42.7832C70.3278 42.9156 70.3448 43.0523 70.3448 43.1933C70.3448 43.4068 70.3129 43.5947 70.2492 43.757C70.1897 43.9193 70.0835 44.0453 69.9305 44.135C69.7818 44.2247 69.5693 44.2696 69.2931 44.2696H68.2288ZM68.898 43.7506H69.1402C69.2379 43.7506 69.3271 43.7378 69.4079 43.7122C69.4886 43.6823 69.5523 43.6246 69.5991 43.5392C69.6501 43.4538 69.6756 43.3299 69.6756 43.1676C69.6756 42.9754 69.6522 42.8366 69.6054 42.7512C69.563 42.6615 69.5035 42.606 69.427 42.5846C69.3548 42.5633 69.2698 42.5526 69.172 42.5526H68.898V43.7506ZM68.898 42.0593H69.2294C69.3611 42.0593 69.4652 42.0208 69.5417 41.944C69.6182 41.8671 69.6564 41.7304 69.6564 41.5339C69.6564 41.3588 69.6118 41.2371 69.5226 41.1688C69.4334 41.1004 69.3123 41.0663 69.1593 41.0663H68.898V42.0593Z" fill="white"/>
<path d="M70.874 44.2696V40.5666H71.556V42.0977C71.5645 42.0977 71.5751 42.0977 71.5879 42.0977C71.6049 42.0977 71.6197 42.0977 71.6325 42.0977C71.6452 42.0977 71.6558 42.0977 71.6643 42.0977C71.915 42.102 72.1275 42.1212 72.3017 42.1554C72.4802 42.1853 72.6246 42.2408 72.7351 42.322C72.8456 42.3988 72.9263 42.5077 72.9773 42.6487C73.0283 42.7854 73.0538 42.9626 73.0538 43.1804C73.0538 43.3812 73.0283 43.552 72.9773 43.693C72.9263 43.8296 72.8434 43.9407 72.7287 44.0261C72.614 44.1115 72.4632 44.1735 72.2762 44.2119C72.0892 44.2503 71.8619 44.2696 71.5942 44.2696H70.874ZM71.556 43.8659H71.5942C71.8109 43.8659 71.9809 43.8467 72.1041 43.8083C72.2273 43.7698 72.3144 43.7015 72.3654 43.6033C72.4164 43.5008 72.4419 43.3577 72.4419 43.174C72.4419 43.0075 72.4185 42.8772 72.3718 42.7832C72.3293 42.685 72.2486 42.6145 72.1296 42.5718C72.0149 42.5248 71.8471 42.5013 71.6261 42.5013C71.6219 42.5013 71.6112 42.5013 71.5942 42.5013C71.5772 42.5013 71.5645 42.5013 71.556 42.5013V43.8659ZM73.4744 44.2696V40.5666H74.1564V44.2696H73.4744Z" fill="white"/>
<path d="M74.845 44.2696V40.5666H75.4187V43.0587L76.5276 40.5666H77.063V44.2696H76.5022V41.7582L75.3995 44.2696H74.845ZM75.9731 40.1629C75.6672 40.1629 75.4505 40.0797 75.323 39.9131C75.1998 39.7465 75.1382 39.5394 75.1382 39.2916H75.5334C75.5376 39.4454 75.5716 39.565 75.6354 39.6504C75.7033 39.7316 75.8159 39.7721 75.9731 39.7721C76.1346 39.7721 76.2472 39.7294 76.3109 39.644C76.3789 39.5586 76.4129 39.4411 76.4129 39.2916H76.8145C76.8145 39.5394 76.7507 39.7465 76.6232 39.9131C76.5 40.0797 76.2833 40.1629 75.9731 40.1629Z" fill="white"/>
<path d="M78.883 45.2113V43.8147C79.0104 43.7165 79.1273 43.599 79.2335 43.4623C79.3397 43.3257 79.4332 43.1527 79.5139 42.9434C79.5947 42.7341 79.6584 42.4757 79.7051 42.1682C79.7519 41.8607 79.7774 41.4891 79.7816 41.0535L79.7944 40.5666H81.4579V43.7827H81.904V45.2113H81.4069L81.3495 44.2696H79.4375L79.3801 45.2113H78.883ZM79.5458 43.7827H80.8014V41.0599H80.3234L80.3106 41.1944C80.3064 41.6471 80.283 42.0251 80.2405 42.3284C80.2023 42.6273 80.147 42.8729 80.0748 43.0651C80.0068 43.2531 79.9261 43.4025 79.8326 43.5136C79.7434 43.6246 79.6478 43.7143 79.5458 43.7827Z" fill="white"/>
<path d="M83.3025 44.3208C83.0306 44.3208 82.816 44.2653 82.6588 44.1542C82.5016 44.0432 82.389 43.8852 82.321 43.6802C82.2572 43.4751 82.2254 43.2338 82.2254 42.9562V41.8799C82.2254 41.6023 82.2572 41.361 82.321 41.156C82.389 40.9509 82.5016 40.7929 82.6588 40.6819C82.816 40.5708 83.0306 40.5153 83.3025 40.5153C83.5744 40.5153 83.7869 40.5708 83.9399 40.6819C84.0971 40.7929 84.2076 40.9509 84.2713 41.156C84.3393 41.361 84.3733 41.6023 84.3733 41.8799V42.9562C84.3733 43.2338 84.3393 43.4751 84.2713 43.6802C84.2076 43.8852 84.0971 44.0432 83.9399 44.1542C83.7869 44.2653 83.5744 44.3208 83.3025 44.3208ZM83.3025 43.8147C83.4342 43.8147 83.5256 43.7763 83.5766 43.6994C83.6318 43.6225 83.6637 43.5221 83.6722 43.3983C83.6849 43.2701 83.6913 43.1377 83.6913 43.0011V41.8415C83.6913 41.7005 83.6849 41.5681 83.6722 41.4443C83.6637 41.3204 83.6318 41.22 83.5766 41.1431C83.5256 41.062 83.4342 41.0214 83.3025 41.0214C83.1708 41.0214 83.0773 41.062 83.0221 41.1431C82.9668 41.22 82.9328 41.3204 82.9201 41.4443C82.9116 41.5681 82.9074 41.7005 82.9074 41.8415V43.0011C82.9074 43.1377 82.9116 43.2701 82.9201 43.3983C82.9328 43.5221 82.9668 43.6225 83.0221 43.6994C83.0773 43.7763 83.1708 43.8147 83.3025 43.8147Z" fill="white"/>
<path d="M84.9775 44.2696L85.0157 40.5666H85.5193L86.3351 42.8409L87.1572 40.5666H87.6608L87.699 44.2696H87.1254V42.0593L86.4434 43.9044H86.2331L85.5511 42.0721V44.2696H84.9775Z" fill="white"/>
</g>
<defs>
<clipPath id="clip0_2761_3148">
<rect width="197" height="53" fill="white"/>
</clipPath>
</defs>
</svg>
