<svg width="13" height="14" viewBox="0 0 13 14" fill="none" xmlns="http://www.w3.org/2000/svg">
<g clip-path="url(#clip0_2713_305)">
<path d="M11 10C11 9.72917 10.901 9.49479 10.7031 9.29688C10.5052 9.09896 10.2708 9 10 9C9.72917 9 9.49479 9.09896 9.29688 9.29688C9.09896 9.49479 9 9.72917 9 10C9 10.2708 9.09896 10.5052 9.29688 10.7031C9.49479 10.901 9.72917 11 10 11C10.2708 11 10.5052 10.901 10.7031 10.7031C10.901 10.5052 11 10.2708 11 10ZM5 4C5 3.72917 4.90104 3.49479 4.70312 3.29688C4.50521 3.09896 4.27083 3 4 3C3.72917 3 3.49479 3.09896 3.29688 3.29688C3.09896 3.49479 3 3.72917 3 4C3 4.27083 3.09896 4.50521 3.29688 4.70312C3.49479 4.90104 3.72917 5 4 5C4.27083 5 4.50521 4.90104 4.70312 4.70312C4.90104 4.50521 5 4.27083 5 4ZM13 10C13 10.8281 12.707 11.5352 12.1211 12.1211C11.5352 12.707 10.8281 13 10 13C9.17188 13 8.46484 12.707 7.87891 12.1211C7.29297 11.5352 7 10.8281 7 10C7 9.17188 7.29297 8.46484 7.87891 7.87891C8.46484 7.29297 9.17188 7 10 7C10.8281 7 11.5352 7.29297 12.1211 7.87891C12.707 8.46484 13 9.17188 13 10ZM12.25 1.5C12.25 1.60417 12.2161 1.70312 12.1484 1.79688L3.89844 12.7969C3.79948 12.9323 3.66667 13 3.5 13H2.25C2.11458 13 1.9974 12.9505 1.89844 12.8516C1.79948 12.7526 1.75 12.6354 1.75 12.5C1.75 12.3958 1.78385 12.2969 1.85156 12.2031L10.1016 1.20312C10.2005 1.06771 10.3333 1 10.5 1H11.75C11.8854 1 12.0026 1.04948 12.1016 1.14844C12.2005 1.2474 12.25 1.36458 12.25 1.5ZM7 4C7 4.82812 6.70703 5.53516 6.12109 6.12109C5.53516 6.70703 4.82812 7 4 7C3.17188 7 2.46484 6.70703 1.87891 6.12109C1.29297 5.53516 1 4.82812 1 4C1 3.17188 1.29297 2.46484 1.87891 1.87891C2.46484 1.29297 3.17188 1 4 1C4.82812 1 5.53516 1.29297 6.12109 1.87891C6.70703 2.46484 7 3.17188 7 4Z" fill="white"/>
</g>
<defs>
<clipPath id="clip0_2713_305">
<rect width="13" height="13" fill="white" transform="translate(0 0.5)"/>
</clipPath>
</defs>
</svg>
