<svg width="86" height="85" viewBox="0 0 86 85" fill="none" xmlns="http://www.w3.org/2000/svg">
<g clip-path="url(#clip0_214_3023)">
<path d="M21.6893 69.9065C22.2594 68.8093 22.582 67.5635 22.582 66.2438V63.0887C22.18 52.5263 7.03908 52.5344 6.64098 63.0887V66.2438C6.64098 67.5635 6.96355 68.8091 7.53364 69.9065C4.04897 72.2612 1.9082 76.2433 1.9082 80.4423V83.3408C1.9082 84.2575 2.65146 85.0009 3.56836 85.0009H25.6547C26.5717 85.0009 27.3149 84.2575 27.3149 83.3408V80.4423C27.3147 76.2433 25.174 72.2612 21.6893 69.9065ZM9.96112 63.0887C10.1957 56.9262 19.0292 56.931 19.2615 63.0887V66.2438C19.0271 72.406 10.1934 72.4013 9.96112 66.2438V63.0887ZM23.9944 81.6805H5.22835V80.4421C5.22835 77.2365 6.92254 74.1998 9.65848 72.4842C12.373 74.7669 16.8501 74.7666 19.5643 72.4842C22.3002 74.1998 23.9944 77.2364 23.9944 80.442V81.6805Z" fill="white"/>
<path d="M14.6113 0C6.83034 0 0.5 6.33034 0.5 14.1112C1.20938 32.8063 28.0161 32.8012 28.7227 14.111C28.7227 6.33034 22.3923 0 14.6113 0V0ZM14.6113 24.9023C8.66116 24.9023 3.82031 20.0615 3.82031 14.1112C4.36269 -0.184609 24.8621 -0.18079 25.4023 14.1113C25.4023 20.0615 20.5615 24.9023 14.6113 24.9023Z" fill="white"/>
<path d="M18.626 9.47828L12.8826 15.2218L10.5978 12.9371C9.94956 12.2889 8.89835 12.2889 8.24989 12.9371C7.6016 13.5853 7.6016 14.6366 8.24989 15.285L11.7085 18.7436C12.357 19.3919 13.408 19.3919 14.0565 18.7436L20.9738 11.8262C21.6221 11.1779 21.6221 10.1267 20.9738 9.47828C20.3255 8.83016 19.2743 8.83016 18.626 9.47828Z" fill="white"/>
<path d="M83.8405 0C82.9236 0 82.1803 0.743417 82.1803 1.66015V23.2423H77.1997V8.30093C77.1997 7.38419 76.4565 6.64078 75.5396 6.64078H58.938C58.0211 6.64078 57.2779 7.38419 57.2779 8.30093V23.2423H52.2971V8.30093C52.2971 7.38419 51.5538 6.64078 50.6369 6.64078H34.0354C33.1185 6.64078 32.3752 7.38419 32.3752 8.30093V23.2423H30.7151C28.5147 23.324 28.5164 26.4818 30.7151 26.5626H82.1805V49.1405H77.1997V34.1992C77.1997 33.2824 76.4565 32.539 75.5396 32.539H58.938C58.0211 32.539 57.2779 33.2824 57.2779 34.1992V49.1405H52.2971V34.1992C52.2971 33.2824 51.5538 32.539 50.6369 32.539H49.8075C48.1064 32.549 47.5288 34.7971 48.9768 35.6367V49.1405H35.6955V35.6377C37.1459 34.7985 36.5673 32.5488 34.8661 32.539H34.0354C33.1185 32.539 32.3752 33.2824 32.3752 34.1992V49.1405H30.7151C28.5147 49.2222 28.5164 52.38 30.7151 52.4608H82.1805V75.0389H77.1997V60.0975C77.1997 59.1808 76.4565 58.4374 75.5396 58.4374H58.938C58.0211 58.4374 57.2779 59.1808 57.2779 60.0975V75.0389H52.2971V60.0975C52.2971 59.1808 51.5538 58.4374 50.6369 58.4374H34.0354C33.1185 58.4374 32.3752 59.1808 32.3752 60.0975V75.0389H30.7151C28.5147 75.1206 28.5164 78.2784 30.7151 78.3592H82.1805V83.3398C82.2622 85.5402 85.42 85.5386 85.5008 83.3398V1.66015C85.5007 0.743417 84.7574 0 83.8405 0ZM35.6955 23.2423V9.96108H48.9768V23.2423H35.6955ZM60.5982 23.2423V9.96108H73.8794V23.2423H60.5982ZM60.5982 49.1405V35.8593H73.8794V49.1405H60.5982ZM35.6955 75.0389V61.7577H48.9768V75.0389H35.6955ZM60.5982 75.0389V61.7577H73.8794V75.0389H60.5982Z" fill="white"/>
<path d="M43.9966 34.1992C43.9966 33.2825 43.2534 32.5391 42.3364 32.5391H42.3353C41.4184 32.5391 40.6758 33.2825 40.6758 34.1992C40.7573 36.3989 43.9156 36.3986 43.9966 34.1992Z" fill="white"/>
</g>
<defs>
<clipPath id="clip0_214_3023">
<rect width="85" height="85" fill="white" transform="translate(0.5)"/>
</clipPath>
</defs>
</svg>
