<svg width="32" height="32" viewBox="0 0 32 32" fill="none" xmlns="http://www.w3.org/2000/svg">
<path d="M26.8929 24H9.28571L4.10714 2H1M5.14286 6.19048H30L26.8929 19.8095H8.25L5.14286 6.19048Z" stroke="#2F80ED" stroke-width="2" stroke-linecap="round" stroke-linejoin="round"/>
<path d="M25 30C26.1046 30 27 29.1046 27 28C27 26.8954 26.1046 26 25 26C23.8954 26 23 26.8954 23 28C23 29.1046 23.8954 30 25 30Z" stroke="#2F80ED" stroke-width="2" stroke-linecap="round" stroke-linejoin="round"/>
<path d="M11 30C12.1046 30 13 29.1046 13 28C13 26.8954 12.1046 26 11 26C9.89543 26 9 26.8954 9 28C9 29.1046 9.89543 30 11 30Z" stroke="#2F80ED" stroke-width="2" stroke-linecap="round" stroke-linejoin="round"/>
</svg>
