<svg width="86" height="85" viewBox="0 0 86 85" fill="none" xmlns="http://www.w3.org/2000/svg">
<g clip-path="url(#clip0_162_1583)">
<path d="M76.9431 73.266L62.6316 48.4776C67.926 43.3445 71.2224 36.1619 71.2224 28.2227C71.2224 12.6607 58.5619 0 42.9998 0C27.4376 0 14.7771 12.6607 14.7771 28.2227C14.7771 36.1619 18.0735 43.3445 23.3681 48.4777L9.05637 73.266C8.72052 73.8479 8.76833 74.5749 9.17773 75.1076C9.58695 75.6402 10.2771 75.8736 10.926 75.6991L21.9584 72.7268L24.9006 83.7673C25.0736 84.4166 25.6207 84.8976 26.287 84.9857C26.36 84.9954 26.4329 85.0002 26.5053 85.0002C27.0926 85.0002 27.6433 84.6881 27.9425 84.1701L42.9998 58.0899L58.057 84.1699C58.3562 84.6881 58.907 85 59.4942 85C59.5666 85 59.6395 84.9952 59.7126 84.9856C60.3786 84.8974 60.926 84.4165 61.0989 83.7672L64.0411 72.7266L75.0736 75.699C75.7228 75.874 76.4126 75.6402 76.822 75.1075C77.2313 74.5749 77.2792 73.8479 76.9431 73.266ZM18.0974 28.2227C18.0974 14.4915 29.2686 3.32031 42.9998 3.32031C56.7309 3.32031 67.9021 14.4915 67.9021 28.2227C67.9021 41.9538 56.7309 53.125 42.9998 53.125C29.2686 53.125 18.0974 41.9538 18.0974 28.2227ZM27.0749 79.0321L24.7382 70.2633C24.6247 69.8371 24.3461 69.4736 23.9641 69.2531C23.5821 69.0325 23.1282 68.973 22.702 69.0877L13.9397 71.4485L25.9295 50.6817C29.9728 53.7623 34.8685 55.7784 40.1958 56.3064L27.0749 79.0321ZM63.2975 69.0876C62.8713 68.9729 62.4174 69.0323 62.0354 69.2529C61.6534 69.4736 61.3749 69.837 61.2613 70.2631L58.9246 79.0319L45.8038 56.306C51.131 55.7781 56.0267 53.762 60.07 50.6814L72.0596 71.4483L63.2975 69.0876Z" fill="white"/>
<path d="M32.5994 24.8367C32.2456 25.9266 32.5357 27.1003 33.3564 27.8999L36.0114 30.4865L35.3856 34.1399C35.1922 35.2693 35.6481 36.3891 36.5753 37.0624C37.0991 37.4428 37.7115 37.6358 38.3283 37.6358C38.8034 37.6358 39.281 37.5211 39.7223 37.289L43.0026 35.5633L46.2839 37.2872C47.2983 37.8201 48.5042 37.7328 49.4309 37.0589C50.3578 36.3852 50.813 35.2651 50.6189 34.1359L49.9914 30.4827L52.645 27.8947C53.4652 27.0947 53.7546 25.9208 53.4003 24.8312C53.0459 23.7417 52.1214 22.9625 50.9875 22.798L47.3192 22.2659L45.678 18.9425C45.1706 17.9152 44.1441 17.2773 42.9986 17.2773C42.9985 17.2773 42.9981 17.2773 42.9978 17.2773C41.8521 17.2777 40.8255 17.9162 40.3185 18.9438L38.6791 22.2681L35.0111 22.8022C33.8774 22.9675 32.9532 23.747 32.5994 24.8367ZM40.0213 25.4282C40.562 25.3495 41.0294 25.0097 41.2711 24.5198L42.999 21.0162L44.7288 24.5189C44.9709 25.0089 45.4384 25.3484 45.9791 25.4267L49.8454 25.9875L47.0487 28.7152C46.6576 29.0967 46.4791 29.6462 46.5716 30.1847L47.233 34.035L43.7746 32.2179C43.291 31.9638 42.7131 31.9639 42.2295 32.2183L38.772 34.0371L39.4315 30.1866C39.5238 29.648 39.345 29.0985 38.9537 28.7171L36.1555 25.991L40.0213 25.4282Z" fill="white"/>
<path d="M43 49.1403C54.5343 49.1403 63.918 39.7566 63.918 28.2223C63.918 19.7208 58.8412 12.1296 50.9844 8.88264C50.1363 8.53202 49.166 8.93544 48.816 9.78278C48.4659 10.6301 48.8688 11.601 49.7162 11.9511C56.3264 14.6829 60.5977 21.0698 60.5977 28.2223C60.5977 37.9257 52.7034 45.82 43 45.82C33.2966 45.82 25.4023 37.9257 25.4023 28.2223C25.4023 21.0527 29.6875 14.6602 36.3194 11.9365C37.1675 11.5882 37.5728 10.6182 37.2245 9.77016C36.876 8.92199 35.9063 8.51691 35.0581 8.86505C27.1754 12.1025 22.082 19.7006 22.082 28.2223C22.082 39.7566 31.4659 49.1403 43 49.1403Z" fill="white"/>
<path d="M43.0215 10.625C43.4581 10.625 43.8864 10.4474 44.1952 10.1386C44.504 9.82979 44.6816 9.40146 44.6816 8.96484C44.6816 8.52822 44.504 8.0999 44.1952 7.79111C43.8864 7.48232 43.4581 7.30469 43.0215 7.30469C42.5849 7.30469 42.1565 7.48232 41.8478 7.79111C41.5373 8.0999 41.3613 8.52822 41.3613 8.96484C41.3613 9.40146 41.5373 9.82979 41.8478 10.1386C42.1565 10.4474 42.5849 10.625 43.0215 10.625Z" fill="white"/>
</g>
<defs>
<clipPath id="clip0_162_1583">
<rect width="85" height="85" fill="white" transform="translate(0.5)"/>
</clipPath>
</defs>
</svg>
