<?xml version="1.0" encoding="utf-8"?><svg viewBox="0 0 512 512" xmlns="http://www.w3.org/2000/svg" xmlns:xlink="http://www.w3.org/1999/xlink"><style>:root>svg{display:none}:root>svg:target{display:block}</style><svg fill="none" viewBox="0 0 86 85" id="assortment-1" xmlns="http://www.w3.org/2000/svg"><g clip-path="url(#aclip0_214_3023)" fill="#fff"><path d="M21.69 69.906a7.922 7.922 0 00.892-3.662v-3.155c-.402-10.563-15.543-10.555-15.941 0v3.155c0 1.32.323 2.565.893 3.662-3.485 2.355-5.626 6.337-5.626 10.536v2.899c0 .916.743 1.66 1.66 1.66h22.087a1.66 1.66 0 001.66-1.66v-2.899c0-4.199-2.141-8.18-5.626-10.535zM9.96 63.09c.235-6.163 9.068-6.158 9.3 0v3.155c-.234 6.162-9.068 6.157-9.3 0v-3.155zM23.994 81.68H5.228v-1.238c0-3.205 1.695-6.242 4.43-7.958 2.715 2.283 7.192 2.283 9.906 0 2.736 1.716 4.43 4.752 4.43 7.958v1.239zM14.611 0C6.831 0 .5 6.33.5 14.111c.71 18.695 27.516 18.69 28.223 0C28.723 6.331 22.393 0 14.61 0zm0 24.902c-5.95 0-10.79-4.84-10.79-10.79.542-14.297 21.041-14.293 21.581 0 0 5.95-4.84 10.79-10.79 10.79z"/><path d="M18.626 9.478l-5.743 5.744-2.285-2.285a1.66 1.66 0 00-2.348 2.348l3.459 3.459a1.66 1.66 0 002.348 0l6.917-6.918a1.66 1.66 0 00-2.348-2.348zM83.84 0a1.66 1.66 0 00-1.66 1.66v21.582H77.2V8.301a1.66 1.66 0 00-1.66-1.66H58.938a1.66 1.66 0 00-1.66 1.66v14.941h-4.98V8.301a1.66 1.66 0 00-1.661-1.66H34.035a1.66 1.66 0 00-1.66 1.66v14.941h-1.66c-2.2.082-2.199 3.24 0 3.32H82.18v22.579H77.2V34.199a1.66 1.66 0 00-1.66-1.66H58.938a1.66 1.66 0 00-1.66 1.66v14.942h-4.98V34.199a1.66 1.66 0 00-1.661-1.66h-.83c-1.7.01-2.278 2.258-.83 3.098V49.14H35.696V35.638c1.45-.84.871-3.09-.83-3.099h-.83a1.66 1.66 0 00-1.66 1.66v14.942h-1.66c-2.201.081-2.2 3.239 0 3.32H82.18v22.578H77.2V60.097a1.66 1.66 0 00-1.66-1.66H58.938a1.66 1.66 0 00-1.66 1.66V75.04h-4.98V60.097a1.66 1.66 0 00-1.661-1.66H34.035a1.66 1.66 0 00-1.66 1.66V75.04h-1.66c-2.2.082-2.199 3.24 0 3.32H82.18v4.98c.082 2.201 3.24 2.2 3.32 0V1.66A1.66 1.66 0 0083.84 0zM35.696 23.242V9.962h13.282v13.28H35.696zm24.903 0V9.962H73.88v13.28H60.6zm0 25.899V35.859H73.88v13.282H60.6zM35.696 75.038V61.758h13.28v13.28h-13.28zm24.902 0V61.758H73.88v13.28H60.6z"/><path d="M43.997 34.2a1.66 1.66 0 00-1.66-1.66h-.002a1.66 1.66 0 00-1.66 1.66c.082 2.199 3.24 2.199 3.322 0z"/></g><defs><clipPath id="aclip0_214_3023"><path fill="#fff" transform="translate(.5)" d="M0 0h85v85H0z"/></clipPath></defs></svg><svg fill="none" viewBox="0 0 32 32" id="cart-icon2" xmlns="http://www.w3.org/2000/svg"><path d="M26.893 24H9.286L4.107 2H1m4.143 4.19H30l-3.107 13.62H8.25L5.143 6.19zM25 30a2 2 0 100-4 2 2 0 000 4zM11 30a2 2 0 100-4 2 2 0 000 4z" stroke="#2F80ED" stroke-width="2" stroke-linecap="round" stroke-linejoin="round"/></svg><svg viewBox="0 0 20 21" id="catalogue-icon" xmlns="http://www.w3.org/2000/svg"><path fill-rule="evenodd" clip-rule="evenodd" d="M5.209 11.583c3.39 0 3.541 1.15 3.541 3.542 0 1.198 0 2.05-.503 2.675-.58.72-1.633.867-3.038.867-1.405 0-2.46-.148-3.039-.867-.503-.624-.503-1.476-.503-2.654l.625-.021h-.625c0-2.392.15-3.542 3.542-3.542zm9.166 0c3.391 0 3.542 1.15 3.542 3.542 0 1.198 0 2.05-.503 2.675-.58.72-1.634.867-3.039.867-1.405 0-2.459-.148-3.038-.867-.503-.624-.503-1.476-.503-2.654l.625-.021h-.625c0-2.392.15-3.542 3.541-3.542zm-8.995 1.25H5.21c-2.174 0-2.286.156-2.292 1.981v.711c.005.726.032 1.25.226 1.492.22.273.876.4 2.066.4 1.189 0 1.845-.128 2.065-.401.226-.281.226-.948.226-1.871 0-2.083 0-2.301-2.12-2.311zm9.167 0h-.172c-2.174 0-2.285.156-2.291 1.981v.711c.004.726.032 1.25.226 1.492.22.273.876.4 2.065.4 1.19 0 1.845-.128 2.066-.401.226-.281.226-.948.226-1.871 0-2.083 0-2.301-2.12-2.311zM5.21 2.418c3.39 0 3.541 1.15 3.541 3.541 0 1.199 0 2.051-.503 2.675-.58.72-1.633.867-3.038.867-1.405 0-2.46-.148-3.039-.867-.503-.624-.503-1.476-.503-2.654l.625-.02h-.625c0-2.392.15-3.542 3.542-3.542zm9.166 0c3.391 0 3.542 1.15 3.542 3.541 0 1.199 0 2.051-.503 2.675-.58.72-1.634.867-3.039.867-1.405 0-2.459-.148-3.038-.867-.503-.624-.503-1.476-.503-2.654l.625-.02h-.625c0-2.392.15-3.542 3.541-3.542zM5.38 3.667H5.21c-2.174 0-2.286.156-2.292 1.98v.711c.005.726.032 1.25.226 1.492.22.273.876.4 2.066.4 1.189 0 1.845-.128 2.065-.4.226-.282.226-.948.226-1.872 0-2.083 0-2.301-2.12-2.311zm9.167 0h-.172c-2.174 0-2.285.156-2.291 1.98v.711c.004.726.032 1.25.226 1.492.22.273.876.4 2.065.4 1.19 0 1.845-.128 2.066-.4.226-.282.226-.948.226-1.872 0-2.083 0-2.301-2.12-2.311z"/></svg><svg viewBox="0 0 512 512" id="close-icon" xmlns="http://www.w3.org/2000/svg"><path d="M443.6 387.1L312.4 255.4l131.5-130c5.4-5.4 5.4-14.2 0-19.6l-37.4-37.6c-2.6-2.6-6.1-4-9.8-4-3.7 0-7.2 1.5-9.8 4L256 197.8 124.9 68.3c-2.6-2.6-6.1-4-9.8-4-3.7 0-7.2 1.5-9.8 4L68 105.9c-5.4 5.4-5.4 14.2 0 19.6l131.5 130L68.4 387.1c-2.6 2.6-4.1 6.1-4.1 9.8 0 3.7 1.4 7.2 4.1 9.8l37.4 37.6c2.7 2.7 6.2 4.1 9.8 4.1 3.5 0 7.1-1.3 9.8-4.1L256 313.1l130.7 131.1c2.7 2.7 6.2 4.1 9.8 4.1 3.5 0 7.1-1.3 9.8-4.1l37.4-37.6c2.6-2.6 4.1-6.1 4.1-9.8-.1-3.6-1.6-7.1-4.2-9.7z"/></svg><svg fill="none" viewBox="0 0 86 85" id="inventory-1" xmlns="http://www.w3.org/2000/svg"><g clip-path="url(#eclip0_162_1550)" fill="#fff"><path d="M34.774 27.42a4.118 4.118 0 00-4.113 4.113v1.37h2.742v-1.37c0-.756.616-1.371 1.371-1.371s1.371.615 1.371 1.37v1.372h2.742v-1.371a4.118 4.118 0 00-4.113-4.113zM22.436 32.904v-1.371a4.118 4.118 0 00-4.113-4.113 4.118 4.118 0 00-4.113 4.113v1.37h2.742v-1.37c0-.756.615-1.371 1.37-1.371.756 0 1.372.615 1.372 1.37v1.372h2.742z"/><path d="M43.873 38.387h.498a5.49 5.49 0 005.484-5.484c0-1.796-.88-3.38-2.22-4.38l1.518-5.314c.466-1.627.702-3.31.702-5.003C49.855 8.168 41.687 0 31.648 0H11.69C7.03 0 3.242 3.79 3.242 8.448c0 .912.145 1.81.433 2.672l.677 2.033A9.088 9.088 0 00.5 20.593c0 2.06.709 4.082 1.996 5.69l2.273 2.842a5.455 5.455 0 00-1.527 3.778 5.49 5.49 0 005.484 5.484h.497c1.39 5.844 5.654 10.57 11.22 12.61l-.385 1.153c-3.352.351-6.295 2.447-7.753 5.486-2.014.263-3.58 1.972-3.58 4.058v5.483c0 1.785 1.151 3.293 2.743 3.861v11.22A2.745 2.745 0 0014.21 85h24.677a2.745 2.745 0 002.742-2.742v-11.22c1.592-.567 2.742-2.076 2.742-3.86v-5.484c0-2.086-1.566-3.795-3.58-4.06-1.458-3.04-4.4-5.136-7.754-5.485l-.384-1.153c5.566-2.039 9.831-6.765 11.22-12.609zm.498-2.742h-.07c.036-.454.07-.907.07-1.37V30.16a2.745 2.745 0 012.742 2.742 2.745 2.745 0 01-2.742 2.742zm-35.645 0a2.745 2.745 0 01-2.742-2.742 2.745 2.745 0 012.742-2.742v4.113c0 .464.034.917.07 1.371h-.07zm0-9.797v1.571c-.56 0-1.089.109-1.597.265l-2.491-3.115a6.38 6.38 0 01-1.396-3.976 6.352 6.352 0 012.835-5.297l1.538-1.027-1.338-4.017a5.672 5.672 0 01-.293-1.804 5.712 5.712 0 015.706-5.706h19.958c8.526 0 15.465 6.938 15.465 15.464 0 1.437-.2 2.866-.595 4.25L45.08 27.49c-.235-.03-.466-.072-.709-.072v-1.4a5.478 5.478 0 00-3.323-5.04l-3.624-1.554c.532-.762 1.01-1.572 1.366-2.465l-2.546-1.018a9.49 9.49 0 01-8.852 5.994h-10.44a2.745 2.745 0 01-2.742-2.742 2.745 2.745 0 012.742-2.742h.2a2.73 2.73 0 012.452 1.514l.235.47 2.453-1.228-.235-.468a5.457 5.457 0 00-4.905-3.03h-.2a5.49 5.49 0 00-5.484 5.483c0 .612.123 1.19.31 1.74l-.021.01a5.456 5.456 0 00-3.031 4.905zM32.73 54.894c.137.013.277.015.411.037l-.899 5.392H20.855l-.898-5.392c.134-.022.274-.024.411-.037l1.892 2.837a2.734 2.734 0 002.28 1.22h4.017c.918 0 1.771-.456 2.281-1.22l1.892-2.837zm-8.924 8.17h5.484v2.742h-5.484v-2.741zm-6.462-7.129L18.02 60a6.835 6.835 0 00-2.802-1.968 7.01 7.01 0 012.125-2.096zm-5.876 5.759c0-.757.615-1.371 1.37-1.371a4.118 4.118 0 014.114 4.113 4.118 4.118 0 01-4.113 4.112 1.372 1.372 0 01-1.371-1.37v-5.484zm2.742 20.564V71.152c3.124-.638 5.483-3.406 5.483-6.716 0-.47-.047-.929-.138-1.372h1.51v2.742a2.745 2.745 0 002.741 2.742h5.484a2.745 2.745 0 002.742-2.742v-2.741h1.51c-.09.442-.139.902-.139 1.37 0 3.31 2.36 6.08 5.484 6.717v11.106H14.21zm27.419-20.564v5.483c0 .757-.615 1.371-1.37 1.371a4.118 4.118 0 01-4.114-4.112 4.118 4.118 0 014.113-4.113c.755 0 1.371.614 1.371 1.37zm-3.752-3.662A6.835 6.835 0 0035.074 60l.678-4.065a6.98 6.98 0 012.125 2.097zm-7.357-4.767l-1.963 2.945H24.54l-1.963-2.945.504-1.512c1.123.222 2.28.344 3.467.344a17.84 17.84 0 003.468-.344l.504 1.512zm-3.972-3.91c-8.314 0-15.08-6.766-15.08-15.08v-8.427a2.73 2.73 0 011.515-2.452l.304-.153c.973.882 2.251 1.434 3.665 1.434h10.44c3.08 0 5.939-1.139 8.132-3.083l4.443 1.904a2.74 2.74 0 011.662 2.52v8.256c0 8.315-6.766 15.08-15.08 15.08z"/><path d="M25.413 41.13h-2.977v2.741h2.977c2.867 0 5.562-1.116 7.59-3.143l-1.939-1.939a7.937 7.937 0 01-5.651 2.34zM82.757 63.067h-5.484V46.615a2.745 2.745 0 00-2.741-2.742H58.08a2.745 2.745 0 00-2.742 2.742v16.452h-5.484a2.745 2.745 0 00-2.742 2.741V82.26a2.745 2.745 0 002.742 2.742h32.903A2.745 2.745 0 0085.5 82.26V65.808a2.745 2.745 0 00-2.742-2.741zm-9.596 2.741h4.112v2.742h-4.112v-2.742zm-9.597-19.193h5.484v2.742h-5.484v-2.742zm-5.484 0h2.742v2.742a2.745 2.745 0 002.742 2.742h5.484a2.745 2.745 0 002.742-2.742v-2.742h2.742v16.452H58.08V46.615zm-2.742 19.193h4.113v2.742h-4.113v-2.742zm-5.484 0h2.742v2.742a2.745 2.745 0 002.742 2.742h4.113a2.745 2.745 0 002.742-2.742v-2.742h2.742V82.26h-15.08V65.808zM67.677 82.26V65.808h2.742v2.742a2.745 2.745 0 002.742 2.742h4.112a2.745 2.745 0 002.742-2.742v-2.742h2.742l.002 16.452H67.677z"/><path d="M59.451 76.775h2.742v2.742h-2.742v-2.742zM53.968 76.775h2.742v2.742h-2.742v-2.742zM77.273 76.775h2.742v2.742h-2.742v-2.742zM71.79 76.775h2.742v2.742H71.79v-2.742zM69.049 57.58h2.742v2.742h-2.742V57.58zM63.563 57.58h2.742v2.742h-2.742V57.58z"/></g><defs><clipPath id="eclip0_162_1550"><path fill="#fff" transform="translate(.5)" d="M0 0h85v85H0z"/></clipPath></defs></svg><svg fill="none" viewBox="0 0 229 50" id="logo" xmlns="http://www.w3.org/2000/svg"><g clip-path="url(#fclip0_2713_2467)"><path opacity=".4" d="M40.906 20.621v-.248c-.05.05-.1.05-.15.1-.447.248-.844.447-1.142.596-.299.149-.796.248-1.243.397-.447.15-.596-.1-.745-.149-.15 0-.2.1-.398 0-.15-.1-.746-.05-.994-.248.199.646 1.342 1.54 2.187 1.69.894.149 1.391 0 1.391 0s.398.397.845.348c-1.143.994-1.69 1.341-2.733 1.44.348-.546.497-.794.447-.844-.05-.1-1.69.745-2.386.745-.696 0-1.49-.05-2.336-.348-.845-.347-2.236-.596-2.584-1.143 1.64.547 2.534.15 3.23.15.646 0 1.491-.498 1.491-.498s-.795-.099-1.441-.099c-.447-.795-1.441-.944-2.485-1.491 2.087.895 3.131.248 3.131.248s-.944-.497-1.143-1.143c1.044.05 2.435-1.242 2.435-1.242s-3.628-.547-5.566-2.287c1.59.05 3.529-.546 3.529-1.54 0-1.044-.05-.15-1.69-.348-1.59-.2-2.187-.547-2.187-.547s1.49-.05.944-.895c1.79.447 2.833.199 3.778-.696-2.038.2-3.132-.348-3.132-.348s1.193 0 1.69-.695c-.795-.15-1.342-.2-2.485-.299-1.143-.1-1.243-.397-1.243-.397s1.243-.398 1.144-.895c-.05-.497-.845-.05-2.038-1.292 1.044.596 1.54.248 1.54.248s-.646-.646-.994-1.093c-.347-.448-.695-.795-.795-1.342-.1-.547.15-.795-.1-1.094-.248-.298 0-.994-.347-.994-.348 0-.1.299-.348.845-.199.547-.398.795-.398 1.342s-1.391 2.237-1.839 3.53c.796-.25 1.243-.895 1.243-.895s-.447 1.093-.646 1.49c-.199.398-.497.547-.696.895-.199.348-.348.348-.696.497-.348.15-.398.299-.398.448 0 .149.1.397.547.447-.696.199-1.839.696-2.187.895-.397.198-.1.497.2.596.347.1.844.249 1.49.1.646-.15.944-.348.944-.348s-.198.248-.347.596c-.1.348-3.231 1.839-4.523 1.988 1.043.447 4.373-.149 5.218-.745-1.192 2.037-2.385 2.236-3.28 2.584-.944.348-1.54.15-1.79.448-.198.248-.248 1.49 2.635 1.54-.447.646-1.342.448-1.54.845-.25.348-.05.945.745 1.044.795.1.447.497.447.497-.248.398-.547.895-.745.994-.2.1-.746-.298-1.044-.348-.299-.1-.994-.149-1.342-.696.745 0 1.391-.397 1.292-.695-.1-.299-.944-.299-1.392-.696-.447-.398-.894-.646-1.143-1.193.597.199 1.243-.348 1.044-.646-.199-.299-.795-.1-1.54-.845.944.198 1.49-.398 1.39-.647-.099-.248-1.341-.099-1.987-1.242.447.15 1.193.05 1.193-.1 0-.149-.597-.248-.995-.994-.397-.745-.198-1.192-.497-1.54-.099-.2-.099-2.635-.198-2.635-.1 0-.348 1.193-.299 1.541 0 .348.1.696-.05.994-.148.298-.148.547-.148.796 0 .248-.249.397-.299.546-.05.2-.596.298-.596.448 0 .149.398.198.497.298.1.05-.745.596-1.292.646-.547.05-.398.199-.547.199-.15 0-.199-.1-.248-.05-.05.05-.05.398.298.348.348 0 .348.248.596.298.249.05.547 0 .547 0s-.199.348-.447.398c-.2.05-.547 0-.597.199-.05.149.199.397.547.447.348 0 .596-.1.596-.1s-.596.547-1.043.547c-.448.05-1.094 0-1.193.15-.1.149-.05.347.497.496.546.15.546.348.546.348s-.546.05-.596.15c-.05.099.1.347.547.347.497 0 .695-.149.695-.149s-.596.398-.944.646c-.348.249-1.093.2-1.292.398-.199.199-.597.1-.795.15-.2 0-.448.248-.1.546.398.298 1.292.298 1.292.298s-.497.547.1.746c-.1.447-1.342.944-1.491.994-.15.05-.497 0-.696.1-.199.099-.248.496.298.645.547.15.895.647 1.64.597-.348.298-1.54.795-1.54.795s-1.193-.696-1.74-1.54c-.547-.796-1.094-1.591-1.441-1.89 1.292.348 2.236.348 2.833.249.596-.1.994-.199.994-.348 0-.1-1.292-.298-1.491-.398.497-.248.397-.596.397-.596s-.944.248-1.888-.646c-.995-.895-2.138-2.287-2.535-3.48 1.242 1.392 2.634 2.088 3.23 2.337.597.248 1.939.447 2.784.05-1.541-.498-2.485-1.343-2.485-1.343s1.441-.596 1.193-1.64c-.995 0-2.187-.398-2.883-.994-.696-.596-.796-.547-.796-.547s1.243-.795.895-1.59c-.1-.15-.845 0-1.392-.348-.546-.348-.646-.348-.894-.646.497.1 1.391-.15 1.242-.597-.1-.497-.795-.546-1.143-1.043.15-.2.15-.348.05-.448.298-.1.397-.596.348-.845-.05-.298-.398-.944-.746-1.342-.248-.298-.397-1.54-.497-2.286-.1.1-.199.199-.248.298 0 .05-.05.1-.05.1-.15.298-.249.745-.249 1.093-.05.398-.149.845-.347 1.044-.2.248-.448.447-.498.646-.05.199-.546.248-.546.447 0 .2.1.497.248.597.1.1.398.1.398.1s-.348.496-.895.745c-.546.248-.795.497-.845.695 0 .15.15.398.497.448.348.05.348.248.597.298.248 0 .248-.248.447-.248s.298 0 .348.099c0 .05-.547.298-.646.547-.05.248-.547.348-.795.397-.299.1-.696 0-.796.15-.1.149-.695.496-.745.695 0 .2.596.2.745.348.15.15 1.044.398 1.243.398.149 0 .149.05.149.1 0 .049-.497-.1-.696.198-.248.298-.199.497-.696.447-.447-.099-.546.398-1.292.497H.398c-.2.895-.299 1.84-.348 2.834.248 0 .447 0 .596-.05.447-.15 1.243-.15 1.243-.15s.1.15.348.1c-.1.199-.845.547-1.243.944-.149.15-.497.348-.994.597 0 .646.05 1.243.1 1.889.347 0 .646-.05.646-.05s0 .398-.597.646c0 .1 0 .15.05.249.745.248 1.938.099 1.938.099s-.447 0-1.093.746c-.15.149-.298.298-.497.397.348 1.491.845 2.982 1.49 4.324.15-.099.349-.248.498-.397-.1.149-.249.348-.447.596 3.33 6.86 10.288 11.531 18.39 11.531 11.282 0 20.428-9.145 20.428-20.428zm-5.915 5.716l.646.696-.944.398-.199-.547.497-.547zM9.245 30.264a1.809 1.809 0 01-.447-.796l1.192.597s-.397.1-.745.199zm1.64-1.491l.944.05-.397.447-.547-.497zm2.038 4.622s-.746-.298-1.243-.994c.945.348 2.287.15 2.287.15l-1.044.844z" fill="#2F80ED"/><path opacity=".3" d="M40.16 19.379c-.347-.15-.248.05-.497 0-.248-.05-.695-.15-.695-.15s.596.697 1.143.846c-.348.198-1.243.248-1.243.248s.646.199.845.348c.1.1.746.05 1.243.05 0-.448-.05-.845-.1-1.293-.348 0-.546 0-.696-.05z" fill="#2F80ED"/><path d="M20.975 1.833s-.348.05-.448.15c-1.292.795-2.386 1.789-3.18 3.031-2.039 3.181-4.076 6.412-5.866 9.693-.845 1.54-1.292 3.23-1.143 5.02a6.023 6.023 0 001.54 3.43c.2.198.448.297.1.695-.397.348-.397.994-.497 1.54-.1.697-.05 1.442.05 2.138.199 1.292.298 2.585.15 3.927l-.2.944c-.894 2.585-1.391 5.219-1.093 8.002.05.448.149.895.348 1.293.348.745.248 1.441-.15 2.087-.745 1.243-.397 1.292.895 1.392.746.05 1.541.1 2.336 0 .746-.1.895-.348.746-.994-.15-.646 0-1.292.298-1.889.944-2.038 2.585-3.628 4.324-5.12.249-.198.299 0 .448.1 1.242 1.093 2.584 2.137 4.125 2.883.248.1.15.298.15.447.049 1.292.198 2.585.745 3.778.199.497.696.795 1.292.844 1.69.05 3.33 0 5.02-.05.05 0 .1-.049.15-.049-.2-.348-.498-.447-.796-.596-.348-.15-.746-.249-1.143-.398-.796-.348-1.094-.845-.845-1.64.397-1.491.596-3.032.546-4.573 0-.547-.099-1.093-.248-1.59l-.696-2.386c-.248-.944-.447-1.889-.497-2.883l-.15-2.286c-.049-.746-.099-1.69-.248-2.336 0 0 .05-.05.15-.1.149-.1.348-.149.596-.199 2.286-.695 3.38-2.137 3.082-4.075-.15-.945-.647-1.79-1.243-2.535-.696-.795-1.143-1.69-1.292-2.734-.15-.845-.299-1.69-.497-2.485-.249-1.143-.696-2.187-1.491-3.082-.299-.348-.547-.745-.398-1.242.05-.249-.05-.298-.249-.298a1.95 1.95 0 01-.646-.249c1.293.199 2.684.398 4.076.348.248 0 .596.05.745-.249.15-.298-.099-.447-.298-.745 1.243.15 1.143-.895 1.541-1.441.15-.249-.149-.448-.348-.597-.397-.298-.845-.547-1.242-.845-.497-.348-.696-.845-.547-1.441.149-.597-.199-1.094-.547-1.541-.298-.348-.447-.646-.199-1.094.15-.298.1-.596.1-.894-.1-.895-.796-1.193-1.541-.646-.795.596-1.69.696-2.634.596-.299-.05-.597-.149-.796-.398-.348-.347-.745-.596-1.242-.447-.547.15-.795.547-.945 1.044-.248.199-.05.398-.198.745z" fill="#2F80ED"/><path d="M24.702 26.089c-.497 0-.845-.1-1.093-.298-.1-.1-.348.298-1.044.05 0 0 .746-.1.696-.398-.05-.2-.05-.2-.15-.398-.099-.15-.645.199-1.043.05 0 0 .795-.2.895-.398.1-.15-.05-.298-.1-.497-.1-.15-.447.1-.944-.15 0 0 1.093-.148 1.242-.496.448-.845 1.541-1.84 1.541-1.84S23.41 23.306 23.51 24.2c.1.944 1.193 1.889 1.193 1.889zM20.726 16.943c.149 0 .646.249 1.044.299.348 0 .745.149.944.298 0 0-.696-.199-.746-.05-.05.1.1.298.15.547 0 .05.845.298.845.398 0 0-.846-.1-.796.05.05.148.1.347.15.496 0 .05.695.199.695.249 0 0-.646 0-.646.149-.1 1.49-7.754 3.578-7.754 3.578s7.058-2.187 7.307-4.175c.149-.894-1.193-1.839-1.193-1.839z" fill="#fff"/><path d="M56.53 37.857V14.014h-4.282v-3.708H65.66v3.708h-4.216v23.843h-4.913zM66.58 43.333v-9.047h.962c.443-.25.864-.578 1.262-.987.42-.43.797-.997 1.129-1.7.332-.703.63-1.599.896-2.687.288-1.111.531-2.46.73-4.048.222-1.587.388-3.47.498-5.646l.598-8.912H84.54v23.98h2.822v9.047h-3.42l-.298-5.476H70.397l-.332 5.476H66.58zm5.544-9.047h7.768V13.912h-3.386L76.207 20c-.088 2.177-.232 4.025-.431 5.544-.2 1.497-.432 2.744-.698 3.742-.265.975-.564 1.768-.896 2.38-.31.613-.642 1.112-.996 1.497-.354.386-.708.76-1.062 1.123zM105.365 38.231c-1.969 0-3.519-.397-4.647-1.19-1.107-.794-1.882-1.87-2.324-3.231-.443-1.384-.664-2.971-.664-4.762v-9.83c0-1.882.221-3.515.664-4.898.442-1.383 1.217-2.45 2.324-3.197 1.128-.749 2.678-1.123 4.647-1.123 1.86 0 3.309.329 4.35.986 1.062.635 1.814 1.554 2.257 2.755.443 1.202.664 2.597.664 4.184v2.313h-4.714v-2.38c0-.772-.044-1.475-.133-2.11-.066-.635-.277-1.133-.631-1.496-.332-.386-.918-.579-1.759-.579-.841 0-1.461.205-1.859.613-.377.385-.62.918-.731 1.598a13.7 13.7 0 00-.166 2.245v11.973c0 .998.078 1.825.233 2.483.155.635.431 1.123.83 1.463.42.317.984.476 1.693.476.819 0 1.394-.193 1.726-.578.354-.409.575-.941.664-1.6.089-.657.133-1.394.133-2.21v-2.483h4.714v2.21c0 1.634-.21 3.085-.631 4.355-.42 1.247-1.162 2.233-2.224 2.959-1.04.703-2.512 1.054-4.416 1.054zM116.123 37.857v-27.55h4.017v17.38l7.37-17.38h3.287v27.55h-4.05V20.204l-7.404 17.653h-3.22zM134.992 37.857v-27.55h12.483v3.74h-7.603v7.824h1.063c1.814 0 3.33.26 4.548.782a5.281 5.281 0 012.788 2.517c.62 1.156.93 2.721.93 4.694 0 1.542-.188 2.834-.564 3.878-.377 1.02-.941 1.836-1.693 2.449-.731.612-1.616 1.043-2.656 1.292-1.041.25-2.225.374-3.553.374h-5.743zm4.88-3.401h.897c.929 0 1.682-.136 2.257-.408.576-.273.996-.749 1.262-1.429.265-.703.387-1.655.365-2.857-.022-1.429-.31-2.517-.863-3.265-.532-.749-1.561-1.123-3.088-1.123h-.83v9.082zM152.434 37.857v-27.55h4.017v17.38l7.37-17.38h3.287v27.55h-4.05V20.204l-7.403 17.653h-3.221zM171.237 37.857v-27.55h7.901c1.616 0 2.921.305 3.917.918 1.019.612 1.76 1.507 2.225 2.687.487 1.156.73 2.562.73 4.217 0 1.792-.299 3.243-.896 4.354-.598 1.088-1.439 1.882-2.523 2.38-1.063.5-2.324.75-3.785.75h-2.656v12.244h-4.913zm4.913-15.782h1.859c.886 0 1.572-.125 2.059-.374a2.069 2.069 0 001.029-1.259c.199-.59.299-1.372.299-2.347 0-.997-.078-1.802-.233-2.415-.133-.635-.443-1.1-.929-1.394-.465-.295-1.207-.442-2.225-.442h-1.859v8.23zM187.084 37.857l5.378-12.313c-1.107-.59-2.003-1.496-2.689-2.72-.686-1.248-1.029-2.779-1.029-4.593s.321-3.299.963-4.456c.641-1.179 1.604-2.052 2.888-2.619 1.306-.566 2.955-.85 4.946-.85h6.209v27.551h-4.881V26.701h-2.157l-4.283 11.156h-5.345zm10.69-14.694h1.095V13.81h-1.195c-1.438 0-2.523.363-3.253 1.089-.731.703-1.096 1.814-1.096 3.333 0 1.565.321 2.778.963 3.64.664.861 1.826 1.292 3.486 1.292zM207.938 37.857v-27.55h4.881V21.87h.996l4.349-11.565h4.88L217.931 23.3l5.511 14.558h-4.98l-4.647-12.687h-.996v12.687h-4.881z" fill="#020303"/></g><defs><clipPath id="fclip0_2713_2467"><path fill="#fff" d="M0 0h229v50H0z"/></clipPath></defs></svg><svg fill="none" viewBox="0 0 197 53" id="logo-footer" xmlns="http://www.w3.org/2000/svg"><g clip-path="url(#gclip0_2761_3148)"><path opacity=".4" d="M47.686 24.164v-.292c-.058.059-.116.059-.174.117a33.26 33.26 0 01-1.333.699c-.348.175-.927.291-1.448.466-.522.174-.696-.117-.87-.175-.173 0-.231.117-.463 0-.174-.116-.87-.058-1.159-.291.232.757 1.565 1.805 2.55 1.98 1.042.175 1.622 0 1.622 0s.463.466.985.408c-1.333 1.165-1.97 1.572-3.187 1.689.406-.64.58-.932.522-.99-.058-.117-1.97.873-2.782.873-.81 0-1.738-.058-2.723-.407-.985-.408-2.607-.7-3.013-1.34 1.912.64 2.955.175 3.766.175.754 0 1.739-.583 1.739-.583s-.927-.116-1.68-.116c-.522-.932-1.68-1.107-2.898-1.747 2.434 1.048 3.65.29 3.65.29s-1.1-.582-1.332-1.339c1.217.059 2.84-1.456 2.84-1.456s-4.23-.64-6.49-2.679c1.854.058 4.114-.64 4.114-1.805 0-1.223-.058-.175-1.97-.408-1.855-.233-2.55-.64-2.55-.64s1.738-.059 1.1-1.05c2.087.525 3.304.234 4.404-.814-2.375.232-3.65-.408-3.65-.408s1.39 0 1.97-.816c-.927-.174-1.564-.232-2.897-.349-1.333-.117-1.448-.466-1.448-.466s1.448-.466 1.332-1.048c-.058-.583-.985-.058-2.375-1.515 1.216.7 1.796.292 1.796.292s-.753-.757-1.159-1.282c-.406-.524-.811-.932-.927-1.572-.116-.64.174-.932-.116-1.282-.29-.349 0-1.164-.406-1.164-.405 0-.115.35-.405.99-.232.64-.464.932-.464 1.572s-1.622 2.621-2.143 4.135c.927-.29 1.448-1.048 1.448-1.048s-.521 1.281-.753 1.747c-.232.466-.58.641-.811 1.049-.232.407-.406.407-.811.582-.406.175-.464.35-.464.524 0 .175.116.466.637.524-.81.233-2.144.816-2.55 1.049-.463.233-.115.582.233.699.405.116.985.29 1.738.116s1.1-.407 1.1-.407-.231.29-.405.698c-.116.408-3.766 2.155-5.273 2.33 1.217.524 5.1-.175 6.084-.873-1.39 2.387-2.78 2.62-3.824 3.028-1.1.408-1.796.175-2.086.524-.231.291-.29 1.747 3.071 1.806-.521.757-1.564.524-1.796.99-.29.407-.058 1.106.87 1.223.926.116.52.582.52.582-.29.466-.637 1.049-.869 1.165-.231.117-.869-.35-1.216-.407-.348-.117-1.16-.175-1.565-.816.87 0 1.623-.466 1.507-.815-.116-.35-1.101-.35-1.622-.816-.522-.466-1.043-.757-1.333-1.398.695.233 1.448-.407 1.217-.757-.232-.35-.927-.116-1.797-.99 1.101.233 1.739-.466 1.623-.757-.116-.291-1.565-.116-2.318-1.456.522.175 1.39.058 1.39-.116 0-.175-.695-.292-1.158-1.165-.464-.874-.232-1.398-.58-1.806-.115-.233-.115-3.087-.231-3.087s-.406 1.398-.348 1.806c0 .408.116.815-.058 1.165-.174.35-.174.64-.174.932 0 .29-.29.466-.347.64-.058.233-.696.35-.696.524 0 .175.464.233.58.35.116.058-.87.699-1.507.757-.637.058-.463.233-.637.233s-.232-.116-.29-.058a.295.295 0 00.348.407c.405 0 .405.292.695.35.29.058.637 0 .637 0s-.231.408-.52.466c-.233.058-.638 0-.696.233-.058.175.232.466.637.524.406 0 .695-.116.695-.116s-.695.64-1.216.64c-.522.058-1.275 0-1.39.175-.117.175-.059.408.579.582.637.175.637.408.637.408s-.637.058-.695.175c-.058.116.115.407.637.407.58 0 .811-.174.811-.174s-.695.466-1.1.757c-.406.291-1.275.233-1.507.466-.232.233-.696.116-.927.174-.232 0-.522.292-.116.641.463.35 1.506.35 1.506.35s-.58.64.116.873c-.116.524-1.564 1.107-1.738 1.165-.174.058-.58 0-.811.117-.232.116-.29.582.347.757.638.174 1.043.757 1.912.699-.405.35-1.796.931-1.796.931s-1.39-.815-2.028-1.805c-.637-.932-1.274-1.864-1.68-2.213 1.507.407 2.607.407 3.303.291.695-.117 1.159-.233 1.159-.408 0-.116-1.507-.35-1.739-.466.58-.29.464-.698.464-.698s-1.101.29-2.202-.758C9.676 23.99 8.344 22.358 7.88 20.96c1.449 1.631 3.07 2.447 3.766 2.738.695.291 2.26.524 3.245.058-1.796-.582-2.897-1.573-2.897-1.573s1.68-.698 1.39-1.921c-1.158 0-2.549-.466-3.36-1.165-.811-.7-.927-.641-.927-.641s1.448-.932 1.043-1.864c-.116-.174-.985 0-1.623-.407-.637-.408-.753-.408-1.043-.758.58.117 1.623-.174 1.449-.698-.116-.583-.927-.641-1.333-1.223.174-.233.174-.408.058-.525.348-.116.464-.699.406-.99-.058-.35-.464-1.106-.87-1.572-.289-.35-.463-1.806-.579-2.68-.116.117-.231.234-.29.35 0 .058-.057.116-.057.116-.174.35-.29.874-.29 1.282-.058.466-.174.99-.406 1.223-.231.291-.521.524-.58.757-.057.233-.636.291-.636.524 0 .233.115.583.29.7.115.116.463.116.463.116s-.406.582-1.043.873c-.637.291-.927.583-.985.816 0 .174.174.465.58.524.405.058.405.291.695.35.29 0 .29-.292.521-.292.232 0 .348 0 .406.117 0 .058-.638.349-.754.64-.058.291-.637.408-.927.466-.347.117-.81 0-.927.175-.116.175-.81.582-.869.815 0 .233.695.233.87.408.173.175 1.216.466 1.448.466.174 0 .174.058.174.116 0 .059-.58-.116-.812.233-.29.35-.231.583-.81.524-.522-.116-.638.466-1.507.583H.464c-.232 1.048-.348 2.155-.406 3.32.29 0 .521 0 .695-.059.522-.174 1.449-.174 1.449-.174s.116.174.405.116c-.116.233-.985.64-1.448 1.107-.174.174-.58.407-1.159.699 0 .757.058 1.456.116 2.213.405 0 .753-.058.753-.058s0 .465-.695.757c0 .116 0 .174.058.29.869.292 2.26.117 2.26.117s-.522 0-1.275.874c-.174.175-.348.35-.58.466.406 1.747.985 3.494 1.739 5.067.173-.117.405-.291.579-.466-.116.175-.29.408-.521.699 3.882 8.037 11.993 13.512 21.438 13.512 13.152 0 23.814-10.716 23.814-23.937zM40.79 30.86l.753.816-1.101.466-.232-.64.58-.642zm-30.014 4.602c-.405-.408-.521-.932-.521-.932l1.39.699s-.463.116-.869.233zm1.912-1.748l1.101.059-.463.524-.638-.583zm2.376 5.417s-.87-.35-1.449-1.165c1.101.408 2.666.175 2.666.175l-1.217.99z" fill="#fff"/><path d="M44.73 20.087h-.29v-.116c.116.058.232.116.29.116 0 0 0 .058 0 0z" fill="#FEFEFE"/><path opacity=".3" d="M46.816 22.708c-.406-.175-.29.058-.58 0-.29-.059-.81-.175-.81-.175s.695.815 1.332.99c-.406.233-1.448.291-1.448.291s.753.233.985.408c.115.116.869.058 1.448.058 0-.524-.058-.99-.116-1.514-.405 0-.637 0-.811-.058z" fill="#5392F5"/><path d="M24.45 2.148s-.405.059-.52.175c-1.507.932-2.782 2.097-3.709 3.553-2.375 3.727-4.751 7.513-6.837 11.357-.985 1.805-1.506 3.786-1.332 5.883.173 1.514.753 2.853 1.796 4.018.231.233.521.35.116.816-.464.407-.464 1.164-.58 1.805-.116.815-.058 1.689.058 2.504.232 1.515.348 3.029.174 4.602l-.232 1.106c-1.043 3.029-1.622 6.116-1.274 9.377.057.524.173 1.048.405 1.514.406.874.29 1.69-.174 2.447-.869 1.456-.463 1.514 1.043 1.63.87.058 1.796.117 2.723 0 .87-.116 1.043-.407.87-1.165-.174-.757 0-1.514.347-2.213 1.101-2.388 3.013-4.251 5.041-5.999.29-.233.348 0 .522.117 1.448 1.281 3.012 2.504 4.809 3.378.29.116.173.35.173.524.058 1.514.232 3.029.87 4.426.231.583.81.932 1.506.99 1.97.059 3.882 0 5.852-.058.058 0 .116-.058.174-.058-.232-.408-.58-.524-.927-.699-.406-.175-.87-.291-1.333-.466-.927-.408-1.275-.99-.985-1.922.464-1.747.695-3.553.638-5.358 0-.64-.116-1.281-.29-1.864l-.811-2.795c-.29-1.107-.522-2.214-.58-3.378l-.174-2.68c-.058-.873-.115-1.98-.29-2.737 0 0 .059-.058.175-.116.173-.117.405-.175.695-.233 2.665-.816 3.94-2.505 3.592-4.776-.174-1.107-.753-2.097-1.448-2.97-.812-.932-1.333-1.98-1.507-3.204-.174-.99-.347-1.98-.58-2.912-.289-1.34-.81-2.563-1.737-3.61-.348-.409-.638-.874-.464-1.457.058-.291-.058-.35-.29-.35a2.264 2.264 0 01-.753-.29c1.507.232 3.129.465 4.751.407.29 0 .696.058.87-.291.173-.35-.117-.524-.348-.874 1.448.175 1.332-1.048 1.796-1.689.174-.29-.174-.524-.406-.699-.463-.35-.985-.64-1.448-.99-.58-.407-.811-.99-.638-1.689.174-.699-.231-1.281-.637-1.805-.348-.408-.521-.757-.232-1.282.174-.349.116-.698.116-1.048C32.91.052 32.1-.298 31.23.343c-.927.699-1.97.815-3.07.699-.349-.058-.696-.175-.928-.466-.405-.408-.869-.699-1.448-.524-.638.174-.927.64-1.101 1.223-.29.233-.058.466-.232.873z" fill="#fff"/><path d="M28.797 30.57c-.58 0-.986-.116-1.275-.35-.116-.116-.406.35-1.217.06 0 0 .87-.117.811-.467-.058-.233-.058-.233-.174-.466-.116-.175-.753.233-1.216.058 0 0 .927-.233 1.043-.465.115-.175-.058-.35-.116-.583-.116-.175-.522.117-1.101-.175 0 0 1.274-.174 1.448-.582.522-.99 1.797-2.155 1.797-2.155s-1.507 1.864-1.391 2.912c.116 1.107 1.39 2.213 1.39 2.213zM24.16 19.854c.175 0 .754.291 1.218.35.405 0 .869.174 1.1.349 0 0-.81-.233-.869-.058-.058.116.116.35.174.64 0 .059.985.35.985.466 0 0-.985-.116-.927.059.058.174.116.407.174.582 0 .058.811.233.811.291 0 0-.753 0-.753.175-.116 1.747-9.039 4.193-9.039 4.193s8.228-2.562 8.518-4.892c.173-1.048-1.391-2.155-1.391-2.155z" fill="#AEAEAE"/><path d="M63.619 35.993c-2.063 0-3.685-.407-4.867-1.223-1.159-.815-1.97-1.922-2.434-3.32-.463-1.42-.695-3.051-.695-4.892V16.46c0-1.934.232-3.61.695-5.032.464-1.421 1.275-2.516 2.434-3.285 1.182-.769 2.804-1.153 4.867-1.153 1.947 0 3.465.338 4.554 1.013 1.113.653 1.9 1.596 2.364 2.831.464 1.235.695 2.667.695 4.298v2.377h-4.936V15.06c0-.792-.047-1.514-.14-2.166-.069-.653-.289-1.165-.66-1.538-.347-.396-.962-.594-1.842-.594-.881 0-1.53.21-1.947.63-.394.395-.65.943-.765 1.641a13.751 13.751 0 00-.174 2.307v12.3c0 1.026.081 1.876.244 2.552.162.652.452 1.153.869 1.502.44.326 1.031.49 1.773.49.857 0 1.46-.199 1.807-.595.371-.419.603-.966.696-1.642.093-.676.139-1.433.139-2.271v-2.552h4.936v2.272c0 1.677-.22 3.168-.66 4.473a5.85 5.85 0 01-2.33 3.04c-1.089.722-2.63 1.083-4.623 1.083zM74.884 35.609V7.304h4.207V25.16l7.717-17.856h3.442v28.305H86.01V17.472L78.256 35.61h-3.372zM94.643 35.609V7.304h13.071v3.844h-7.96v8.037h1.112c1.9 0 3.488.268 4.763.804 1.297.512 2.271 1.374 2.92 2.585.649 1.189.973 2.796.973 4.823 0 1.584-.197 2.912-.591 3.984-.394 1.048-.985 1.887-1.773 2.516-.765.629-1.692 1.071-2.781 1.328-1.089.256-2.329.384-3.72.384h-6.014zm5.11-3.495h.939c.973 0 1.761-.14 2.364-.419.603-.28 1.043-.769 1.321-1.468.278-.722.406-1.7.382-2.935-.023-1.468-.324-2.586-.903-3.355-.557-.768-1.634-1.153-3.234-1.153h-.869v9.33zM112.908 35.609V7.304h4.206V25.16l7.718-17.856h3.442v28.305h-4.241V17.472L116.28 35.61h-3.372zM132.597 35.609V7.304h8.274c1.692 0 3.06.314 4.103.943 1.066.629 1.842 1.55 2.329 2.76.51 1.189.765 2.633.765 4.334 0 1.84-.313 3.331-.939 4.473-.626 1.118-1.507 1.933-2.642 2.446-1.113.512-2.434.769-3.963.769h-2.782v12.58h-5.145zm5.145-16.215h1.947c.927 0 1.646-.128 2.156-.384.533-.28.892-.71 1.077-1.293.209-.606.313-1.41.313-2.411 0-1.025-.081-1.852-.243-2.481-.139-.652-.464-1.13-.973-1.433-.487-.303-1.264-.454-2.33-.454h-1.947v8.457zM149.192 35.609l5.632-12.65c-1.159-.606-2.098-1.538-2.816-2.796-.719-1.281-1.078-2.854-1.078-4.717 0-1.864.336-3.39 1.008-4.578.673-1.212 1.681-2.108 3.025-2.69 1.367-.583 3.094-.874 5.18-.874h6.501v28.305h-5.111V24.147h-2.259l-4.485 11.462h-5.597zm11.194-15.096h1.147v-9.61h-1.251c-1.507 0-2.642.373-3.407 1.118-.765.722-1.147 1.864-1.147 3.425 0 1.607.336 2.854 1.008 3.739.695.885 1.912 1.328 3.65 1.328zM171.03 35.609V7.304h5.111v11.88h1.043l4.554-11.88h5.11l-5.354 13.348 5.771 14.957h-5.214l-4.867-13.035h-1.043V35.61h-5.111zM56.382 44.27v-3.19h-.689v-.513h2.065v.512h-.695v3.19h-.681zM59.147 44.32c-.272 0-.487-.055-.644-.166a.91.91 0 01-.338-.474 2.447 2.447 0 01-.096-.724V41.88c0-.278.032-.519.096-.724a.91.91 0 01.338-.474c.157-.111.372-.167.644-.167s.484.056.637.167a.879.879 0 01.331.474c.068.205.102.446.102.724v1.076c0 .278-.034.52-.102.724a.879.879 0 01-.331.474c-.153.111-.365.167-.637.167zm0-.505c.131 0 .223-.039.274-.116a.574.574 0 00.095-.3c.013-.129.02-.261.02-.398v-1.16a3.87 3.87 0 00-.02-.397.574.574 0 00-.095-.3c-.051-.082-.143-.123-.274-.123-.132 0-.226.041-.28.122a.616.616 0 00-.103.301 5.813 5.813 0 00-.013.398v1.16c0 .136.005.268.013.396a.616.616 0 00.102.301c.055.077.149.116.28.116zM60.84 45.487v-4.92h.683v.294c.08-.094.178-.175.293-.243a.783.783 0 01.408-.103c.191 0 .342.052.452.154.115.098.2.224.255.378.055.15.092.303.109.461.017.154.025.286.025.398v.897c0 .26-.025.508-.076.743-.051.23-.145.418-.28.563-.133.141-.32.212-.562.212a.645.645 0 01-.35-.096 1.6 1.6 0 01-.274-.23v1.492h-.682zm1.173-1.704c.12 0 .204-.043.255-.129a.88.88 0 00.096-.358c.013-.15.02-.314.02-.493v-.897c0-.154-.01-.295-.026-.423a.682.682 0 00-.109-.314c-.055-.077-.142-.115-.261-.115-.09 0-.174.019-.255.057a.937.937 0 00-.21.135v2.37c.063.047.136.088.216.122.081.03.172.045.274.045zM63.685 44.27v-3.703h1.485v.493h-.803v3.21h-.682zM66.535 44.32c-.272 0-.487-.055-.644-.166a.91.91 0 01-.338-.474 2.45 2.45 0 01-.096-.724V41.88c0-.278.032-.519.096-.724a.91.91 0 01.338-.474c.157-.111.372-.167.644-.167s.484.056.637.167a.878.878 0 01.331.474c.068.205.102.446.102.724v1.076c0 .278-.034.52-.102.724a.878.878 0 01-.331.474c-.153.111-.365.167-.637.167zm0-.505c.131 0 .223-.039.274-.116a.575.575 0 00.095-.3c.013-.129.02-.261.02-.398v-1.16c0-.14-.007-.273-.02-.397a.575.575 0 00-.095-.3c-.051-.082-.143-.123-.274-.123-.132 0-.226.041-.28.122a.617.617 0 00-.103.301 5.816 5.816 0 00-.013.398v1.16c0 .136.005.268.013.396a.617.617 0 00.102.301c.055.077.149.116.28.116zM68.229 44.27v-3.703h1.032c.251 0 .446.042.587.128.144.08.246.19.306.326a1.148 1.148 0 01.013.923c-.064.145-.196.248-.396.307.153.03.27.095.35.193a.737.737 0 01.173.34c.034.132.05.268.05.41 0 .213-.031.4-.095.563a.711.711 0 01-.319.378c-.148.09-.36.135-.637.135H68.23zm.669-.52h.242a.883.883 0 00.268-.038.358.358 0 00.191-.173c.051-.085.077-.21.077-.371 0-.193-.024-.331-.07-.417-.043-.09-.102-.145-.179-.166a.906.906 0 00-.255-.032h-.274v1.198zm0-1.69h.331a.421.421 0 00.313-.116c.076-.077.114-.214.114-.41 0-.175-.044-.297-.133-.365a.583.583 0 00-.364-.103h-.261v.993zM70.874 44.27v-3.703h.682v1.53h.108c.251.005.463.024.638.058.178.03.323.086.433.167.11.077.191.186.242.327.051.136.077.314.077.531 0 .201-.026.372-.077.513a.72.72 0 01-.248.333 1.131 1.131 0 01-.453.186 3.449 3.449 0 01-.682.058h-.72zm.682-.404h.038c.217 0 .387-.02.51-.058a.418.418 0 00.261-.205.981.981 0 00.077-.429.893.893 0 00-.07-.39.39.39 0 00-.242-.212c-.115-.047-.283-.07-.504-.07h-.07v1.364zm1.918.404v-3.703h.682v3.703h-.682zM74.845 44.27v-3.703h.574v2.492l1.109-2.492h.535v3.703h-.56v-2.512L75.4 44.27h-.555zm1.128-4.107c-.306 0-.522-.083-.65-.25a1.016 1.016 0 01-.185-.621h.395a.619.619 0 00.102.358c.068.082.18.122.338.122.162 0 .274-.043.338-.128a.551.551 0 00.102-.352h.401a.992.992 0 01-.19.621c-.124.167-.34.25-.65.25zM78.883 45.211v-1.396a1.96 1.96 0 00.35-.353c.107-.136.2-.31.28-.519.082-.209.145-.467.192-.775a8.07 8.07 0 00.077-1.114l.012-.487h1.664v3.216h.446v1.428h-.497l-.057-.941h-1.912l-.058.941h-.497zm.663-1.428H80.8V41.06h-.478l-.012.134c-.005.453-.028.831-.07 1.134a3.339 3.339 0 01-.166.737 1.47 1.47 0 01-.242.449 1.3 1.3 0 01-.287.269zM83.302 44.32c-.271 0-.486-.055-.643-.166a.91.91 0 01-.338-.474 2.447 2.447 0 01-.096-.724V41.88c0-.278.032-.519.096-.724a.91.91 0 01.338-.474c.157-.111.372-.167.643-.167.272 0 .485.056.638.167a.878.878 0 01.331.474c.068.205.102.446.102.724v1.076c0 .278-.034.52-.102.724a.878.878 0 01-.331.474c-.153.111-.366.167-.638.167zm0-.505c.132 0 .224-.039.275-.116a.575.575 0 00.095-.3c.013-.129.02-.261.02-.398v-1.16a3.9 3.9 0 00-.02-.397.575.575 0 00-.095-.3c-.051-.082-.143-.123-.275-.123-.131 0-.225.041-.28.122a.615.615 0 00-.102.301 5.816 5.816 0 00-.013.398v1.16c0 .136.005.268.013.396a.615.615 0 00.102.301c.055.077.149.116.28.116zM84.978 44.27l.038-3.703h.503l.816 2.274.822-2.274h.504l.038 3.703h-.574v-2.21l-.682 1.844h-.21l-.682-1.832v2.198h-.573z" fill="#fff"/></g><defs><clipPath id="gclip0_2761_3148"><path fill="#fff" d="M0 0h197v53H0z"/></clipPath></defs></svg><svg fill="none" viewBox="0 0 86 85" id="medal-1" xmlns="http://www.w3.org/2000/svg"><g clip-path="url(#hclip0_162_1583)" fill="#fff"><path d="M76.943 73.266L62.632 48.478c5.294-5.134 8.59-12.316 8.59-20.255C71.222 12.66 58.562 0 43 0 27.438 0 14.777 12.66 14.777 28.223c0 7.939 3.296 15.121 8.591 20.255L9.056 73.266a1.66 1.66 0 001.87 2.433l11.032-2.972 2.943 11.04a1.66 1.66 0 003.041.403L43 58.09l15.057 26.08a1.66 1.66 0 003.042-.403l2.942-11.04 11.033 2.972a1.66 1.66 0 001.87-2.433zM18.097 28.223C18.097 14.492 29.27 3.32 43 3.32c13.73 0 24.902 11.171 24.902 24.903 0 13.73-11.171 24.902-24.902 24.902-13.731 0-24.903-11.171-24.903-24.902zm8.978 50.81l-2.337-8.77a1.66 1.66 0 00-2.036-1.175l-8.762 2.36 11.99-20.766a28.076 28.076 0 0014.266 5.624L27.075 79.032zm36.222-9.945a1.66 1.66 0 00-2.036 1.175l-2.336 8.769-13.121-22.726a28.075 28.075 0 0014.266-5.625l11.99 20.767-8.763-2.36z"/><path d="M32.6 24.837a2.97 2.97 0 00.756 3.063l2.655 2.587-.625 3.653a2.97 2.97 0 001.19 2.922 2.977 2.977 0 003.146.227l3.28-1.726 3.282 1.724a2.97 2.97 0 003.147-.228 2.97 2.97 0 001.188-2.923l-.628-3.653 2.654-2.588a2.97 2.97 0 00.755-3.064 2.97 2.97 0 00-2.413-2.033l-3.668-.532-1.641-3.323a2.97 2.97 0 00-2.68-1.666 2.97 2.97 0 00-2.68 1.667l-1.639 3.324-3.668.534a2.97 2.97 0 00-2.412 2.035zm7.421.591a1.66 1.66 0 001.25-.908L43 21.016l1.73 3.503c.242.49.71.83 1.25.908l3.866.56-2.796 2.728a1.66 1.66 0 00-.477 1.47l.661 3.85-3.458-1.817a1.66 1.66 0 00-1.545 0l-3.458 1.82.66-3.851a1.66 1.66 0 00-.478-1.47l-2.798-2.726 3.865-.563z"/><path d="M43 49.14c11.534 0 20.918-9.383 20.918-20.918a20.862 20.862 0 00-12.934-19.34 1.66 1.66 0 10-1.268 3.07 17.552 17.552 0 0110.882 16.27c0 9.704-7.895 17.598-17.598 17.598s-17.598-7.894-17.598-17.598c0-7.17 4.285-13.562 10.917-16.286a1.66 1.66 0 00-1.26-3.071 20.855 20.855 0 00-12.977 19.357c0 11.535 9.384 20.918 20.918 20.918z"/><path d="M43.022 10.625c.436 0 .864-.178 1.173-.486.309-.31.487-.738.487-1.174 0-.437-.178-.865-.487-1.174a1.673 1.673 0 00-1.173-.486c-.437 0-.865.177-1.174.486-.31.309-.487.737-.487 1.174 0 .436.176.865.487 1.174.309.308.737.486 1.174.486z"/></g><defs><clipPath id="hclip0_162_1583"><path fill="#fff" transform="translate(.5)" d="M0 0h85v85H0z"/></clipPath></defs></svg><svg fill="none" viewBox="0 0 13 14" id="sales-icon" xmlns="http://www.w3.org/2000/svg"><g clip-path="url(#iclip0_2713_305)"><path d="M11 10a.961.961 0 00-.297-.703A.961.961 0 0010 9a.961.961 0 00-.703.297A.961.961 0 009 10c0 .27.099.505.297.703A.961.961 0 0010 11c.27 0 .505-.099.703-.297A.961.961 0 0011 10zM5 4a.961.961 0 00-.297-.703A.961.961 0 004 3a.961.961 0 00-.703.297A.961.961 0 003 4c0 .27.099.505.297.703A.961.961 0 004 5c.27 0 .505-.099.703-.297A.961.961 0 005 4zm8 6a2.89 2.89 0 01-.879 2.121A2.89 2.89 0 0110 13a2.89 2.89 0 01-2.121-.879A2.89 2.89 0 017 10c0-.828.293-1.535.879-2.121A2.89 2.89 0 0110 7a2.89 2.89 0 012.121.879A2.89 2.89 0 0113 10zm-.75-8.5a.499.499 0 01-.102.297l-8.25 11A.469.469 0 013.5 13H2.25a.48.48 0 01-.352-.148.48.48 0 01-.148-.352c0-.104.034-.203.102-.297l8.25-11A.469.469 0 0110.5 1h1.25a.48.48 0 01.352.148.48.48 0 01.148.352zM7 4a2.89 2.89 0 01-.879 2.121A2.89 2.89 0 014 7a2.89 2.89 0 01-2.121-.879A2.89 2.89 0 011 4c0-.828.293-1.535.879-2.121A2.89 2.89 0 014 1a2.89 2.89 0 012.121.879A2.89 2.89 0 017 4z" fill="#fff"/></g><defs><clipPath id="iclip0_2713_305"><path fill="#fff" transform="translate(0 .5)" d="M0 0h13v13H0z"/></clipPath></defs></svg><svg fill="none" viewBox="0 0 24 24" id="search-icon" xmlns="http://www.w3.org/2000/svg"><path d="M21 21l-4.486-4.494L21 21zm-2-10.5a8.5 8.5 0 11-17 0 8.5 8.5 0 0117 0v0z" stroke="#BDBDBD" stroke-width="2" stroke-linecap="round"/></svg><svg viewBox="0 0 24 24" id="shopping-cart-icon" xmlns="http://www.w3.org/2000/svg"><path d="M7 18c-1.1 0-1.99.9-1.99 2S5.9 22 7 22s2-.9 2-2-.9-2-2-2zM1 2v2h2l3.6 7.59-1.35 2.45c-.16.28-.25.61-.25.96 0 1.1.9 2 2 2h12v-2H7.42c-.14 0-.25-.11-.25-.25l.03-.12.9-1.63h7.45c.75 0 1.41-.41 1.75-1.03l3.58-6.49A1.003 1.003 0 0020 4H5.21l-.94-2H1zm16 16c-1.1 0-1.99.9-1.99 2s.89 2 1.99 2 2-.9 2-2-.9-2-2-2z"/></svg><svg viewBox="0 0 20 20" id="show-menu" xmlns="http://www.w3.org/2000/svg"><path d="M3.333 5h13.333v1.667H3.333V5zm0 4.167h13.333v1.666H3.333V9.167zm0 4.166h13.333V15H3.333v-1.667z"/></svg></svg>